<svg width="128" height="128" viewBox="0 0 128 128" fill="none" xmlns="http://www.w3.org/2000/svg">
<g clip-path="url(#clip0_313_1283)">
<path d="M121.623 36.1212L114.943 29.7204L114.326 28.9064C101.342 32.7854 81.6922 38.6459 81.1187 38.7604C80.2602 38.9322 63.2445 34.2254 63.2445 34.2254L42.6585 25.6279H40.6092C33.7245 35.2642 29.3537 46.8672 28.4742 59.4504L30.8115 59.1924H53.819L86.2697 66.7484L125.073 59.5219V59.4929L127.697 57.7699C126.954 50.0734 124.849 42.7757 121.623 36.1212Z" fill="#31A7FB"/>
<path d="M42.0028 25.6279H19.5655L8.31926 36.6912L4.86576 39.4889C2.33826 45.5799 0.721511 52.1437 0.192261 59.0132L2.48401 61.5427H9.52101L30.249 59.2544C30.973 46.7747 35.2155 35.2397 42.0028 25.6279Z" fill="#0094FD"/>
<path d="M106.307 18.3196V15.9823C97.676 8.37235 86.978 3.05485 75.1638 0.975098C62.7215 4.6096 51.818 11.9218 43.6658 21.6761L61.5453 28.2786H84.7243L108.213 20.8358L106.307 18.3196Z" fill="#B5DBFD"/>
<path d="M75.6307 1.057C71.859 0.36425 67.9722 0 64 0C51.56 0 39.9517 3.553 30.127 9.694V15.238L29.064 16.2838L44.7107 22.0618C52.6485 12.3155 63.3535 4.91375 75.6307 1.057Z" fill="#8DCAFC"/>
<path d="M110.651 71.5339L90.3903 77.2474L80.9471 74.2362L57.0811 64.0002L43.002 63.3687L29.6098 65.7756L28.3418 66.2344C28.695 77.8394 32.012 88.6864 37.5526 98.0239L38.1945 98.3396L53.4755 101.451L74.7661 99.0264L90.9056 94.6584L113.161 102.059L116.154 101.102C122.405 92.3302 126.499 81.9147 127.66 70.6297L125.927 68.6571L110.651 71.5339Z" fill="#B5DBFD"/>
<path d="M30.1905 65.6709L29.6097 65.7754L12.44 71.9844L1.91724 71.6514L0.693237 73.4309C1.34749 77.8609 2.45499 82.1429 3.96824 86.2281L4.95974 86.7301L7.11724 87.8226L8.09774 89.0877L16.904 87.8657L38.1945 98.3391L40.8865 98.8872C34.5397 89.2929 30.6715 77.9179 30.1905 65.6709Z" fill="#8DCAFC"/>
<path d="M64.7783 108.298L46.6076 106.993C46.6076 106.993 45.7568 107.167 44.3416 107.457C52.2586 116.63 62.6488 123.549 74.4576 127.147C83.4803 125.663 91.8673 122.292 99.2006 117.453L99.6071 116.213L94.3393 112.762L64.7783 108.298Z" fill="#31A7FB"/>
<path d="M47.27 107.041L46.6077 106.993C46.6077 106.993 32.6847 109.842 23.6845 111.704L23.4287 113.497C34.4717 122.559 48.6 128 64 128C67.9887 128 71.8915 127.633 75.678 126.934C64.8255 122.369 55.1597 115.542 47.27 107.041Z" fill="#0094FD"/>
<path d="M106.306 15.9819C95.8467 17.6377 87.295 23.7669 78.9432 25.0107C67.6067 26.6992 66.6792 26.9004 48.1995 16.7767C44.244 20.6359 40.7715 24.9994 37.8807 29.7657C43.3902 28.6182 49.295 29.5239 57.2762 34.7314C77.2022 47.7329 77.4327 47.6157 88.2355 45.7102C97.9437 43.9977 107.954 33.5432 121.623 36.1209C117.89 28.4197 112.657 21.5819 106.306 15.9819Z" fill="#8DCAFC"/>
<path d="M49.0492 17.2413C47.5897 16.4436 46.0182 15.5796 44.317 14.6421C38.8627 11.6368 34.2762 10.1501 30.127 9.69385C18.8942 16.7151 9.99723 27.1223 4.86548 39.4888C9.72848 39.9458 15.5997 39.6148 21.1205 36.9998C28.0055 33.7383 33.4135 30.2891 39.472 29.4946C42.1707 25.0311 45.3912 20.9188 49.0492 17.2413Z" fill="#31A7FB"/>
<path d="M64.7712 57.1657C47.041 52.2814 38.472 55.4092 24.333 58.2369C15.653 59.9729 6.19925 59.5774 0.19225 59.0132C0.06525 60.6587 0 62.3217 0 63.9999C0 67.2044 0.2385 70.3529 0.69325 73.4312C6.71075 74.4232 15.472 74.8904 23.5618 71.6544C37.7005 65.9989 46.2695 59.7434 64 69.5122C86.286 81.7909 86.544 81.6802 98.6263 79.8807C107.418 78.5712 116.432 71.8487 127.66 70.6292C127.884 68.4502 128 66.2387 128 63.9999C128 61.8977 127.896 59.8202 127.698 57.7699C116.81 58.4817 107.997 61.7097 99.3975 62.3502C87.3152 63.2497 87.0572 63.3052 64.7712 57.1657Z" fill="#8DCAFC"/>
<path d="M30.1343 63.0762C30.1343 61.0134 30.2348 58.9747 30.4228 56.9609C28.486 57.3739 26.474 57.8087 24.333 58.2369C15.653 59.9729 6.19925 59.5774 0.19225 59.0132C0.0655 60.6589 0 62.3219 0 64.0002V64.0004C0 67.2049 0.2385 70.3534 0.69325 73.4314C6.71075 74.4234 15.4722 74.8907 23.5618 71.6549C25.9748 70.6897 28.2253 69.7072 30.3873 68.7897C30.2233 66.9064 30.1343 65.0019 30.1343 63.0762Z" fill="#31A7FB"/>
<path d="M74.7187 95.0478C59.6952 101.272 47.0012 99.4316 34.9907 93.2691C37.9515 99.3428 41.808 104.887 46.3885 109.721C51.6415 109.584 57.4175 110.229 64.7712 112.254C86.9342 118.36 87.3135 118.339 99.2005 117.453C105.809 113.092 111.564 107.542 116.154 101.102C104.758 91.0526 89.2367 89.0331 74.7187 95.0478Z" fill="#8DCAFC"/>
<path d="M38.4593 94.9163C34.8918 93.3605 31.3963 91.4028 27.932 89.1353C19.8415 83.8398 10.49 84.605 3.96851 86.2283C7.94901 96.9741 14.731 106.359 23.429 113.497C23.731 113.442 24.0328 113.385 24.3333 113.325C33.8835 111.415 40.8955 109.372 49.903 109.75C45.4128 105.398 41.5493 100.404 38.4593 94.9163Z" fill="#31A7FB"/>
<path d="M62.9936 84.5541C64.0461 80.3869 59.2663 75.5859 52.3175 73.8308C45.3688 72.0757 38.8824 74.0311 37.8299 78.1983C36.7773 82.3655 41.5572 87.1664 48.5059 88.9215C55.4547 90.6767 61.9411 88.7213 62.9936 84.5541Z" fill="#8DCAFC"/>
</g>
<defs>
<clipPath id="clip0_313_1283">
<rect width="128" height="128" fill="white"/>
</clipPath>
</defs>
</svg>
