<svg width="34" height="14" viewBox="0 0 34 14" fill="none" xmlns="http://www.w3.org/2000/svg">
<rect width="34" height="14" rx="7" fill="#FAFFFD"/>
<path d="M5.01247 9.60399C4.40047 9.89199 3.81246 10.048 3.27246 10.084L3.50046 9.29199C3.98046 9.26799 4.38847 9.14799 4.80847 8.90799C4.82047 8.06799 5.06047 7.17999 5.43247 6.14799C5.84047 5.04399 6.08046 4.46799 6.42846 4.46799C7.04046 4.46799 7.35247 4.61199 7.35247 4.89999C7.35247 5.10399 7.06446 5.58399 6.71646 6.41199C6.36847 7.25199 6.14047 7.92399 6.14047 8.49999C6.14047 8.79999 6.26046 8.94399 6.51247 8.94399C7.04046 8.94399 7.85646 8.11599 8.54046 6.56799C9.16446 5.16399 9.02047 4.52799 9.58447 4.52799C10.0045 4.52799 10.4365 4.69599 10.4365 4.97199C10.4365 5.15199 10.2805 5.40399 10.1365 5.79999L8.81646 9.44799C9.15246 9.37599 9.54846 9.33999 10.0285 9.29199L9.80047 10.084C9.29647 10.132 8.85246 10.18 8.46846 10.3C7.94046 12.172 7.28046 13.084 6.44046 13.084C6.04446 13.084 5.81646 12.88 5.81646 12.484C5.81646 11.812 6.35647 11.008 7.35247 10.552C7.70047 9.69999 8.03646 8.82399 8.34846 7.91199C7.54446 9.38799 6.77647 10.108 5.87647 10.108C5.50447 10.108 5.12047 9.90399 5.01247 9.60399ZM14.8758 7.95999C14.0718 9.39999 13.2798 10.108 12.3198 10.108C11.8878 10.108 11.5398 9.98799 11.3478 9.73599C10.9278 9.96399 10.4245 10.06 9.80047 10.084L10.0285 9.29199C10.4365 9.26799 10.7718 9.19599 11.0718 9.02799C11.0358 8.84799 11.0238 8.66799 11.0238 8.48799C11.0238 7.87599 11.2878 7.07199 11.8278 6.29199C12.6198 5.15199 13.5918 4.56399 14.5998 4.56399C15.0918 4.56399 15.4398 4.69599 15.7758 5.03199L15.8598 4.76799C15.9318 4.52799 15.9798 4.39599 16.2318 4.39599C16.7718 4.39599 17.2398 4.61199 17.2398 4.86399C17.2398 4.98399 16.9398 5.43999 16.5438 6.35199C16.0158 7.56399 15.7638 8.39199 15.7638 8.83599C15.7638 9.18399 15.9558 9.24399 16.5798 9.29199L16.3518 10.084H16.2438C15.0798 10.084 14.5758 9.87999 14.5758 9.23199C14.5758 8.93199 14.6838 8.52399 14.8758 7.95999ZM15.4758 5.73999C15.2718 5.58399 15.0678 5.49999 14.8518 5.49999C14.4078 5.49999 13.7718 5.89599 13.1958 6.61599C12.6438 7.31199 12.3798 8.07999 12.3798 8.54799C12.3798 8.93199 12.5118 9.11199 12.7878 9.11199C13.5438 9.11199 14.4678 7.98399 15.4758 5.73999ZM16.3506 10.084L16.5786 9.29199C17.2506 9.20799 18.4986 7.99599 19.9266 5.58399C19.7706 5.41599 19.7106 5.23599 19.7106 5.00799C19.7106 4.39599 20.2506 3.89199 20.9106 3.89199C21.3066 3.89199 21.5466 4.11999 21.5466 4.46799C21.5466 4.80399 21.3426 5.13999 20.9586 5.46399C21.5946 6.17199 21.9306 6.78399 21.9306 7.51599C21.9306 8.12799 21.7026 8.75199 21.3306 9.14799C21.5226 9.25599 21.7626 9.29199 22.0626 9.29199H22.1826L21.9546 10.084H21.7866C21.3426 10.084 20.9586 9.99999 20.5626 9.81999C20.0826 10.012 19.6386 10.108 19.2546 10.108C18.6426 10.108 18.0666 9.89199 17.7066 9.54399C17.3346 9.83199 16.8786 10.012 16.3506 10.084ZM18.6786 8.60799C18.9786 8.71599 19.1946 8.94399 19.3266 9.29199C20.0466 9.14799 20.5026 8.52399 20.5026 7.61199C20.5026 7.21599 20.4186 6.81999 20.2866 6.38799C19.9986 7.02399 19.4466 7.81599 18.6786 8.60799ZM23.3321 9.50799C22.9841 9.86799 22.5281 10.048 21.9521 10.084L22.1801 9.29199C23.0561 9.24399 23.5001 8.52399 23.9441 7.13199L25.1681 3.31599C25.6961 1.68399 25.5041 1.23999 26.4161 1.23999C26.9681 1.23999 27.2201 1.28799 27.2201 1.51599C27.2201 1.73199 27.0521 2.06799 26.8481 2.58399L24.9401 7.41999C26.1041 5.53599 27.0881 4.57599 28.0961 4.57599C28.6001 4.57599 28.8761 4.86399 28.8761 5.31999C28.8761 5.75199 28.5401 6.54399 28.0481 7.77999C27.8201 8.34399 27.7361 8.73999 27.7361 8.87199C27.7361 9.18399 27.9641 9.25599 28.5521 9.29199L28.3241 10.084H28.1921C26.9201 10.084 26.3321 9.75999 26.3321 9.01599C26.3321 8.67999 26.5601 7.98399 27.0161 6.91599C27.2321 6.42399 27.3641 6.13599 27.3641 6.00399C27.3641 5.87199 27.3041 5.81199 27.1601 5.81199C26.8721 5.81199 25.7201 6.74799 24.8201 8.82399C24.3281 9.97599 24.5321 10.108 23.6201 10.108C23.3201 10.108 23.2001 10.06 23.2001 9.90399C23.2001 9.81999 23.2481 9.68799 23.3321 9.50799Z" fill="#0E1012"/>
</svg>
