<svg width="26" height="13" viewBox="0 0 26 13" fill="none" xmlns="http://www.w3.org/2000/svg">
<path d="M2.01266 8.604C1.40066 8.892 0.812656 9.048 0.272656 9.084L0.500656 8.292C0.980656 8.268 1.38866 8.148 1.80866 7.908C1.82066 7.068 2.06066 6.18 2.43266 5.148C2.84066 4.044 3.08066 3.468 3.42866 3.468C4.04066 3.468 4.35266 3.612 4.35266 3.9C4.35266 4.104 4.06466 4.584 3.71666 5.412C3.36866 6.252 3.14066 6.924 3.14066 7.5C3.14066 7.8 3.26066 7.944 3.51266 7.944C4.04066 7.944 4.85666 7.116 5.54066 5.568C6.16466 4.164 6.02066 3.528 6.58466 3.528C7.00466 3.528 7.43666 3.696 7.43666 3.972C7.43666 4.152 7.28066 4.404 7.13666 4.8L5.81666 8.448C6.15266 8.376 6.54866 8.34 7.02866 8.292L6.80066 9.084C6.29666 9.132 5.85266 9.18 5.46866 9.3C4.94066 11.172 4.28066 12.084 3.44066 12.084C3.04466 12.084 2.81666 11.88 2.81666 11.484C2.81666 10.812 3.35666 10.008 4.35266 9.552C4.70066 8.7 5.03666 7.824 5.34866 6.912C4.54466 8.388 3.77666 9.108 2.87666 9.108C2.50466 9.108 2.12066 8.904 2.01266 8.604ZM11.876 6.96C11.072 8.4 10.28 9.108 9.32 9.108C8.888 9.108 8.54 8.988 8.348 8.736C7.928 8.964 7.424 9.06 6.8 9.084L7.028 8.292C7.436 8.268 7.772 8.196 8.072 8.028C8.036 7.848 8.024 7.668 8.024 7.488C8.024 6.876 8.288 6.072 8.828 5.292C9.62 4.152 10.592 3.564 11.6 3.564C12.092 3.564 12.44 3.696 12.776 4.032L12.86 3.768C12.932 3.528 12.98 3.396 13.232 3.396C13.772 3.396 14.24 3.612 14.24 3.864C14.24 3.984 13.94 4.44 13.544 5.352C13.016 6.564 12.764 7.392 12.764 7.836C12.764 8.184 12.956 8.244 13.58 8.292L13.352 9.084H13.244C12.08 9.084 11.576 8.88 11.576 8.232C11.576 7.932 11.684 7.524 11.876 6.96ZM12.476 4.74C12.272 4.584 12.068 4.5 11.852 4.5C11.408 4.5 10.772 4.896 10.196 5.616C9.644 6.312 9.38 7.08 9.38 7.548C9.38 7.932 9.512 8.112 9.788 8.112C10.544 8.112 11.468 6.984 12.476 4.74ZM13.3508 9.084L13.5788 8.292C14.2508 8.208 15.4988 6.996 16.9268 4.584C16.7708 4.416 16.7108 4.236 16.7108 4.008C16.7108 3.396 17.2508 2.892 17.9108 2.892C18.3068 2.892 18.5468 3.12 18.5468 3.468C18.5468 3.804 18.3428 4.14 17.9588 4.464C18.5948 5.172 18.9308 5.784 18.9308 6.516C18.9308 7.128 18.7028 7.752 18.3308 8.148C18.5228 8.256 18.7628 8.292 19.0628 8.292H19.1828L18.9548 9.084H18.7868C18.3428 9.084 17.9588 9 17.5628 8.82C17.0828 9.012 16.6388 9.108 16.2548 9.108C15.6428 9.108 15.0668 8.892 14.7068 8.544C14.3348 8.832 13.8788 9.012 13.3508 9.084ZM15.6788 7.608C15.9788 7.716 16.1948 7.944 16.3268 8.292C17.0468 8.148 17.5028 7.524 17.5028 6.612C17.5028 6.216 17.4188 5.82 17.2868 5.388C16.9988 6.024 16.4468 6.816 15.6788 7.608ZM20.3323 8.508C19.9843 8.868 19.5283 9.048 18.9523 9.084L19.1803 8.292C20.0563 8.244 20.5003 7.524 20.9443 6.132L22.1683 2.316C22.6963 0.684 22.5043 0.24 23.4163 0.24C23.9683 0.24 24.2203 0.288 24.2203 0.516C24.2203 0.732 24.0523 1.068 23.8483 1.584L21.9403 6.42C23.1043 4.536 24.0883 3.576 25.0963 3.576C25.6003 3.576 25.8763 3.864 25.8763 4.32C25.8763 4.752 25.5403 5.544 25.0483 6.78C24.8203 7.344 24.7363 7.74 24.7363 7.872C24.7363 8.184 24.9643 8.256 25.5523 8.292L25.3243 9.084H25.1923C23.9203 9.084 23.3323 8.76 23.3323 8.016C23.3323 7.68 23.5603 6.984 24.0163 5.916C24.2323 5.424 24.3643 5.136 24.3643 5.004C24.3643 4.872 24.3043 4.812 24.1603 4.812C23.8723 4.812 22.7203 5.748 21.8203 7.824C21.3283 8.976 21.5323 9.108 20.6203 9.108C20.3203 9.108 20.2003 9.06 20.2003 8.904C20.2003 8.82 20.2483 8.688 20.3323 8.508Z" fill="white"/>
</svg>
