<svg width="21" height="21" viewBox="0 0 21 21" fill="none" xmlns="http://www.w3.org/2000/svg">
<path d="M8.749 0.0162995C9.13764 -0.0414548 9.53342 0.0555835 9.85127 0.286554C10.1691 0.517525 10.3837 0.863987 10.4488 1.25146C10.5139 1.63894 10.4243 2.03649 10.1994 2.35865C9.97451 2.68081 9.63217 2.90187 9.246 2.9743C7.49914 3.27095 5.91366 4.17633 4.77043 5.53004C3.62721 6.88376 3.00003 8.59843 3 10.3703C3 12.3594 3.79018 14.2671 5.1967 15.6736C6.60322 17.0801 8.51088 17.8703 10.5 17.8703V20.8703C4.701 20.8703 0 16.1703 0 10.3703C0 5.2253 3.726 0.860299 8.749 0.0162995Z" fill="#9EFF7C"/>
<path d="M15.392 2.66872C15.5235 2.52197 15.6827 2.40258 15.8604 2.31737C16.0381 2.23216 16.2309 2.18281 16.4277 2.17213C16.6245 2.16145 16.8214 2.18965 17.0073 2.25513C17.1932 2.3206 17.3643 2.42207 17.511 2.55372C18.6102 3.53755 19.4892 4.74246 20.0905 6.08955C20.6917 7.43664 21.0017 8.89554 21 10.3707C21 16.1707 16.299 20.8707 10.5 20.8707V17.8707C12.0182 17.8707 13.5006 17.41 14.7513 16.5495C16.002 15.689 16.9621 14.4691 17.5047 13.0513C18.0473 11.6334 18.1469 10.0842 17.7902 8.60854C17.4335 7.13288 16.6373 5.80022 15.507 4.78672C15.2109 4.52108 15.0325 4.14872 15.0109 3.75153C14.9893 3.35434 15.1264 2.96485 15.392 2.66872Z" fill="#9EFF7C" fill-opacity="0.5"/>
</svg>
