<svg width="65" height="65" viewBox="0 0 65 65" fill="none" xmlns="http://www.w3.org/2000/svg">
<rect width="65" height="65" rx="21" fill="#0E1012"/>
<path d="M39.17 26.57C39.45 27.41 39.59 28.53 39.59 29.93C39.59 31.31 39.42 32.64 39.08 33.92C38.74 35.2 38.22 36.42 37.52 37.58C36.84 38.72 35.88 39.65 34.64 40.37C33.42 41.07 32.01 41.42 30.41 41.42C28.01 41.42 26.41 40.75 25.61 39.41C24.17 40.75 22.56 41.42 20.78 41.42C18.38 41.42 16.73 40.91 15.83 39.89C15.23 39.21 14.93 38.2 14.93 36.86C14.93 36.16 15.01 35.38 15.17 34.52L16.58 26.57H21.68L20.27 34.55C20.21 34.85 20.18 35.12 20.18 35.36C20.18 36.5 20.77 37.07 21.95 37.07C22.77 37.07 23.39 36.72 23.81 36.02C24.23 35.3 24.59 34.05 24.89 32.27L25.91 26.57H31.01L29.6 34.55C29.54 34.85 29.51 35.12 29.51 35.36C29.51 36.5 30.1 37.07 31.28 37.07C33.36 37.07 34.4 34.89 34.4 30.53C34.4 29.51 34.32 28.38 34.16 27.14L34.07 26.57H39.17ZM40.7809 39.26C40.7809 37.98 41.0609 37.05 41.6209 36.47C42.1809 35.87 43.0709 35.57 44.2909 35.57C45.9709 35.57 46.8109 36.31 46.8109 37.79C46.8109 39.05 46.5209 39.97 45.9409 40.55C45.3809 41.13 44.4909 41.42 43.2709 41.42C41.6109 41.42 40.7809 40.7 40.7809 39.26Z" fill="#9EFF7C"/>
</svg>
