<svg width="340" height="340" viewBox="0 0 340 340" fill="none" xmlns="http://www.w3.org/2000/svg">
<rect width="340" height="340" rx="81" fill="#FAFFFD"/>
<g clip-path="url(#clip0_25_9)">
<path d="M170.5 116.781C166.368 116.781 162.329 115.556 158.894 113.261C155.458 110.965 152.781 107.702 151.2 103.885C149.618 100.068 149.205 95.8675 150.011 91.8151C150.817 87.7627 152.807 84.0403 155.728 81.1187C158.65 78.1971 162.372 76.2075 166.424 75.4014C170.477 74.5953 174.677 75.009 178.495 76.5902C182.312 78.1714 185.574 80.849 187.87 84.2844C190.165 87.7199 191.391 91.7589 191.391 95.8906C191.385 101.429 189.182 106.74 185.265 110.656C181.349 114.572 176.039 116.775 170.5 116.781Z" fill="#4C72E6"/>
<path d="M236.156 117.08L235.989 117.124L235.832 117.173C235.459 117.277 235.086 117.389 234.713 117.505C227.77 119.542 194.077 129.04 170.34 129.04C148.282 129.04 117.636 120.833 107.832 118.046C106.856 117.669 105.86 117.347 104.848 117.083C97.7598 115.218 92.9102 122.418 92.9102 128.999C92.9102 135.516 98.767 138.619 104.68 140.847V140.951L140.201 152.045C143.831 153.437 144.801 154.858 145.275 156.089C146.815 160.04 145.584 167.863 145.148 170.593L142.984 187.38L130.976 253.108C130.939 253.287 130.905 253.469 130.875 253.656L130.789 254.13C129.924 260.154 134.348 266 142.727 266C150.039 266 153.265 260.953 154.664 254.085C154.664 254.085 165.11 195.304 170.332 195.304C175.555 195.304 186.314 254.085 186.314 254.085C187.713 260.953 190.939 266 198.251 266C206.652 266 211.076 260.128 210.189 254.085C210.11 253.57 210.017 253.063 209.905 252.57L197.733 187.388L195.573 170.601C194.01 160.823 195.267 157.593 195.692 156.835C195.703 156.817 195.713 156.799 195.722 156.779C196.125 156.033 197.96 154.362 202.243 152.754L235.548 141.111C235.753 141.057 235.955 140.992 236.153 140.917C242.121 138.679 248.09 135.583 248.09 129.006C248.09 122.429 243.244 115.218 236.156 117.08Z" fill="#4C72E6"/>
</g>
<defs>
<clipPath id="clip0_25_9">
<rect width="191" height="191" fill="white" transform="translate(75 75)"/>
</clipPath>
</defs>
</svg>
