<svg width="138" height="138" viewBox="0 0 138 138" fill="none" xmlns="http://www.w3.org/2000/svg">
<path d="M105.656 0H32.3438C14.4808 0 0 14.4808 0 32.3438V105.656C0 123.519 14.4808 138 32.3438 138H105.656C123.519 138 138 123.519 138 105.656V32.3438C138 14.4808 123.519 0 105.656 0Z" fill="#5865F2"/>
<mask id="mask0_70_14" style="mask-type:luminance" maskUnits="userSpaceOnUse" x="15" y="27" width="108" height="85">
<path d="M15.0938 27.4922H122.906V111.009H15.0938V27.4922Z" fill="white"/>
</mask>
<g mask="url(#mask0_70_14)">
<path d="M106.362 34.9296C99.3718 31.721 91.9953 29.433 84.4168 28.1229C84.3479 28.1101 84.2768 28.1194 84.2135 28.1494C84.1502 28.1794 84.098 28.2286 84.0643 28.29C83.1166 29.9751 82.0665 32.1745 81.3318 33.9027C73.0447 32.6618 64.8009 32.6618 56.6842 33.9027C55.9489 32.1356 54.8611 29.9751 53.9091 28.29C53.8739 28.2299 53.8213 28.1818 53.7583 28.1519C53.6954 28.1221 53.6248 28.112 53.556 28.1229C45.9768 29.4304 38.6 31.7185 31.6113 34.9296C31.5515 34.955 31.501 34.9983 31.4669 35.0536C17.49 55.9347 13.6616 76.3027 15.5397 96.4183C15.5449 96.4676 15.56 96.5154 15.5841 96.5587C15.6082 96.6021 15.6408 96.6401 15.6799 96.6706C24.9011 103.443 33.8339 107.554 42.6007 110.279C42.6688 110.3 42.7416 110.299 42.8093 110.276C42.8769 110.254 42.9361 110.212 42.9791 110.155C45.0528 107.323 46.9013 104.337 48.4867 101.197C48.5085 101.154 48.521 101.107 48.5232 101.059C48.5255 101.011 48.5176 100.962 48.4999 100.918C48.4822 100.873 48.4552 100.832 48.4207 100.798C48.3862 100.765 48.3449 100.739 48.2996 100.722C45.3671 99.6096 42.5753 98.2538 39.8897 96.7137C39.8408 96.6849 39.7997 96.6445 39.7701 96.5961C39.7405 96.5476 39.7232 96.4927 39.7199 96.436C39.7165 96.3793 39.7272 96.3227 39.7509 96.2711C39.7746 96.2195 39.8106 96.1745 39.8557 96.1402C40.4223 95.7166 40.9791 95.2802 41.5258 94.8313C41.5736 94.7917 41.6316 94.7663 41.6931 94.7579C41.7546 94.7496 41.8173 94.7585 41.874 94.7839C59.5186 102.84 78.6203 102.84 96.0562 94.7839C96.1131 94.7569 96.1765 94.7466 96.239 94.7543C96.3015 94.7619 96.3606 94.7871 96.4093 94.827C96.9565 95.2785 97.5148 95.7163 98.0837 96.1402C98.129 96.1742 98.1653 96.2189 98.1894 96.2703C98.2134 96.3217 98.2245 96.3782 98.2216 96.4348C98.2186 96.4915 98.2018 96.5466 98.1726 96.5952C98.1434 96.6438 98.1027 96.6845 98.054 96.7137C95.3669 98.2827 92.5521 99.6222 89.6398 100.718C89.5946 100.735 89.5535 100.762 89.5193 100.796C89.485 100.83 89.4584 100.871 89.4412 100.917C89.4239 100.962 89.4164 101.01 89.4192 101.059C89.4219 101.107 89.4348 101.154 89.457 101.197C91.0699 104.312 92.9091 107.305 94.9598 110.151C95.0015 110.209 95.0605 110.253 95.1284 110.276C95.1963 110.299 95.2696 110.3 95.3382 110.279C104.148 107.554 113.08 103.443 122.302 96.6706C122.342 96.6415 122.375 96.6043 122.399 96.5616C122.423 96.5189 122.438 96.4715 122.442 96.4226C124.69 73.1669 118.677 52.9656 106.502 35.0579C106.472 34.9997 106.422 34.9542 106.362 34.9296ZM51.1216 84.1703C45.8092 84.1703 41.432 79.2934 41.432 73.3039C41.432 67.3143 45.7245 62.4374 51.1216 62.4374C56.5608 62.4374 60.8954 67.3575 60.8102 73.3039C60.8102 79.2934 56.5182 84.1703 51.1216 84.1703ZM86.9455 84.1703C81.6331 84.1703 77.2564 79.2934 77.2564 73.3039C77.2564 67.3143 81.5485 62.4374 86.9455 62.4374C92.3847 62.4374 96.7193 67.3575 96.6347 73.3039C96.6347 79.2934 92.3847 84.1703 86.9455 84.1703Z" fill="white"/>
</g>
</svg>
