<svg width="340" height="340" viewBox="0 0 340 340" fill="none" xmlns="http://www.w3.org/2000/svg">
<g clip-path="url(#clip0_194_32305)">
<path d="M259 0H81C36.2649 0 0 36.2649 0 81V259C0 303.735 36.2649 340 81 340H259C303.735 340 340 303.735 340 259V81C340 36.2649 303.735 0 259 0Z" fill="#FAFFFD"/>
<path d="M271.204 250.079C271.204 259.533 263.534 267.204 254.079 267.204C244.625 267.204 236.954 259.533 236.954 250.079C236.954 240.624 244.625 232.954 254.079 232.954C263.534 232.954 271.204 240.624 271.204 250.079Z" stroke="#4C72E6" stroke-width="8" stroke-linecap="round"/>
<path d="M243.055 200.773C246.747 190.409 261.411 190.409 265.103 200.773C267.422 207.302 274.879 210.406 281.14 207.427C291.094 202.7 301.458 213.064 296.731 223.018C293.752 229.279 296.856 236.736 303.385 239.055C313.749 242.747 313.749 257.411 303.385 261.103C296.856 263.422 293.752 270.879 296.731 277.14C301.458 287.094 291.094 297.458 281.14 292.731C274.879 289.752 267.422 292.856 265.103 299.385C261.411 309.749 246.747 309.749 243.055 299.385C240.736 292.856 233.279 289.752 227.018 292.731C217.064 297.458 206.7 287.094 211.427 277.14C214.406 270.879 211.302 263.422 204.773 261.103C194.409 257.411 194.409 242.747 204.773 239.055C211.302 236.736 214.406 229.279 211.427 223.018C206.7 213.064 217.064 202.7 227.018 207.427C233.279 210.406 240.736 207.302 243.055 200.773Z" stroke="#4C72E6" stroke-width="8" stroke-linecap="round"/>
<g clip-path="url(#clip1_194_32305)">
<path d="M84.7569 249C103.383 249 118.5 233.992 118.5 215.5V182H84.7569C66.1306 182 51.0137 197.008 51.0137 215.5C51.0137 233.992 66.1306 249 84.7569 249Z" fill="#0ACF83"/>
<path d="M51.0137 148.5C51.0137 130.008 66.1306 115 84.7569 115H118.5V182H84.7569C66.1306 182 51.0137 166.992 51.0137 148.5Z" fill="#A259FF"/>
<path d="M51.0137 81.5C51.0137 63.008 66.1306 48 84.7569 48H118.5V115H84.7569C66.1306 115 51.0137 99.992 51.0137 81.5Z" fill="#F24E1E"/>
<path d="M118.5 48H152.243C170.87 48 185.987 63.008 185.987 81.5C185.987 99.992 170.87 115 152.243 115H118.5V48Z" fill="#FF7262"/>
<path d="M185.987 148.5C185.987 166.992 170.87 182 152.243 182C133.617 182 118.5 166.992 118.5 148.5C118.5 130.008 133.617 115 152.243 115C170.87 115 185.987 130.008 185.987 148.5Z" fill="#1ABCFE"/>
</g>
</g>
<defs>
<clipPath id="clip0_194_32305">
<rect width="340" height="340" fill="white"/>
</clipPath>
<clipPath id="clip1_194_32305">
<rect width="135" height="201" fill="white" transform="translate(51 48)"/>
</clipPath>
</defs>
</svg>
