<svg width="24" height="24" viewBox="0 0 24 24" fill="none" xmlns="http://www.w3.org/2000/svg">
    <path
        d="M14.7269 6H20.7269L14.7269 0V6ZM14.7269 6.727H13.9999V0H4.90995C4.00495 0 3.27295 0.732 3.27295 1.636V22.364C3.27295 23.268 4.00495 24 4.90895 24H19.0909C19.9949 24 20.7269 23.268 20.7269 22.364V6.727H14.7269ZM7.90995 17.318C7.8024 17.3179 7.69591 17.2967 7.59657 17.2555C7.49723 17.2142 7.40698 17.1539 7.33098 17.0778C7.25497 17.0017 7.1947 16.9113 7.1536 16.812C7.1125 16.7126 7.09138 16.6061 7.09145 16.4985C7.09151 16.3909 7.11276 16.2845 7.15398 16.1851C7.1952 16.0858 7.25558 15.9955 7.33168 15.9195C7.40778 15.8435 7.4981 15.7832 7.59749 15.7422C7.69688 15.7011 7.8034 15.6799 7.91095 15.68C8.12816 15.68 8.33648 15.7663 8.49007 15.9199C8.64366 16.0735 8.72995 16.2818 8.72995 16.499C8.72995 16.7162 8.64366 16.9245 8.49007 17.0781C8.33648 17.2317 8.12716 17.318 7.90995 17.318ZM7.90995 14.045C7.80005 14.0488 7.69052 14.0304 7.58789 13.9909C7.48525 13.9514 7.39162 13.8917 7.31256 13.8153C7.23351 13.7389 7.17066 13.6473 7.12775 13.546C7.08485 13.4448 7.06277 13.3359 7.06284 13.226C7.06291 13.116 7.08512 13.0072 7.12814 12.906C7.17117 12.8048 7.23414 12.7133 7.31328 12.637C7.39243 12.5607 7.48614 12.501 7.58882 12.4617C7.6915 12.4224 7.80106 12.4041 7.91095 12.408C8.12308 12.4154 8.32404 12.5049 8.47149 12.6576C8.61893 12.8103 8.70134 13.0142 8.70134 13.2265C8.70134 13.4388 8.61893 13.6427 8.47149 13.7954C8.32404 13.9481 8.12208 14.0376 7.90995 14.045ZM7.90995 10.773C7.8024 10.7729 7.69591 10.7517 7.59657 10.7105C7.49723 10.6692 7.40698 10.6089 7.33098 10.5328C7.25497 10.4567 7.1947 10.3663 7.1536 10.267C7.1125 10.1676 7.09138 10.0611 7.09145 9.9535C7.09151 9.84595 7.11276 9.73946 7.15398 9.64012C7.1952 9.54078 7.25558 9.45053 7.33168 9.37453C7.40778 9.29852 7.4981 9.23825 7.59749 9.19715C7.69688 9.15605 7.8034 9.13493 7.91095 9.135C8.12816 9.135 8.33648 9.22129 8.49007 9.37488C8.64366 9.52847 8.72995 9.73679 8.72995 9.954C8.72995 10.1712 8.64366 10.3795 8.49007 10.5331C8.33648 10.6867 8.12716 10.773 7.90995 10.773ZM16.9099 17.182H10.0919V15.818H16.9099V17.182ZM16.9099 13.909H10.0919V12.545H16.9099V13.909ZM16.9099 10.636H10.0919V9.273H16.9099V10.636Z"
        fill="#724ABD" />
</svg>