<svg width="340" height="340" viewBox="0 0 340 340" fill="none" xmlns="http://www.w3.org/2000/svg">
<g clip-path="url(#clip0_39_2)">
<path d="M259 0H81C36.2649 0 0 36.2649 0 81V259C0 303.735 36.2649 340 81 340H259C303.735 340 340 303.735 340 259V81C340 36.2649 303.735 0 259 0Z" fill="#FAFFFD"/>
<path d="M116.687 185.302C116.59 185.097 116.711 184.868 116.93 184.809C117.107 184.76 117.275 184.664 117.413 184.514L117.873 184.021C118.27 183.594 118.36 182.965 118.099 182.444C117.65 181.546 116.429 181.401 115.782 182.168L115.535 182.459C115.49 182.512 115.461 182.573 115.428 182.633L112.087 175.553C112.032 175.435 112.045 175.296 112.122 175.192L112.78 174.298C112.78 174.298 118.475 166.018 115.358 164.257C112.351 162.558 107.631 169.669 107.631 169.669L105.969 171.979C105.895 172.082 105.77 172.138 105.643 172.124L97.4431 171.223C97.4495 171.215 97.4584 171.209 97.4648 171.2L97.7841 170.767C98.3221 170.037 97.8789 168.999 96.9806 168.882L96.6268 168.836C96.1895 168.78 95.7571 168.97 95.5029 169.329L94.9511 170.112C94.851 170.254 94.8026 170.41 94.7977 170.565C94.7912 170.765 94.6086 170.911 94.4097 170.889L86.7108 170.043C86.5963 170.031 86.4828 170.074 86.4068 170.161L84.3107 172.539C84.1424 172.729 84.2238 173.029 84.4651 173.108L90.3626 175.06L93.7824 176.192L101.179 178.639L95.3726 186.712C95.3179 186.788 95.2344 186.84 95.1412 186.854L82.718 188.849C82.5462 188.876 82.4199 189.024 82.4199 189.198L82.4208 190.999C82.4208 191.172 82.5457 191.319 82.7165 191.348L88.4664 192.312L94.1244 193.261C94.2444 193.281 94.3456 193.362 94.3924 193.474L98.6799 203.767C98.7347 203.9 98.864 203.986 99.0072 203.985L100.626 203.985C100.829 203.984 100.991 203.813 100.979 203.609L100.271 191.418C100.266 191.334 100.292 191.252 100.343 191.185L107.37 181.875L118.037 195.881C118.191 196.083 118.501 196.063 118.626 195.842L120.193 193.086C120.25 192.986 120.255 192.864 120.206 192.76L116.687 185.302Z" fill="#4285F4"/>
<path d="M133.035 162.462L194.806 151.137C196.616 150.805 197.814 149.069 197.482 147.259C197.15 145.449 195.415 144.251 193.605 144.583L131.833 155.909C130.024 156.241 128.826 157.976 129.157 159.786C129.452 161.393 130.853 162.518 132.43 162.518C132.629 162.518 132.831 162.499 133.035 162.462Z" fill="#4285F4"/>
<path d="M135.668 182.045L197.776 170.657C199.587 170.326 200.785 168.59 200.453 166.781C200.121 164.97 198.387 163.773 196.576 164.104L134.467 175.492C132.658 175.823 131.459 177.559 131.791 179.369C132.086 180.976 133.487 182.101 135.064 182.101C135.263 182.101 135.465 182.083 135.668 182.045Z" fill="#4285F4"/>
<path d="M200.626 183.568L137.564 195.13C135.753 195.463 134.555 197.198 134.887 199.008C135.182 200.615 136.583 201.739 138.16 201.739C138.359 201.739 138.562 201.721 138.765 201.684L201.827 190.122C203.637 189.79 204.835 188.054 204.504 186.245C204.171 184.434 202.435 183.237 200.626 183.568Z" fill="#4285F4"/>
<path d="M282.738 184.637L271.11 121.222C269.529 112.599 261.228 106.866 252.604 108.45L210.6 116.152C210.6 116.152 210.6 116.152 210.599 116.152C210.599 116.152 210.599 116.152 210.599 116.152L69.0341 142.108C60.4102 143.689 54.6814 151.991 56.2623 160.614L67.889 224.03C69.2937 231.688 75.9977 237.064 83.5215 237.063C84.4686 237.063 85.4311 236.978 86.3955 236.801L227.96 210.846C227.961 210.846 227.961 210.846 227.961 210.846C227.961 210.846 227.962 210.846 227.962 210.846L269.966 203.144C278.589 201.563 284.319 193.261 282.738 184.637ZM226.219 201.351C224.525 201.661 223.384 203.206 223.516 204.887L85.1942 230.248C80.1865 231.167 75.3615 227.838 74.4425 222.829L62.8158 159.413C62.3711 156.986 62.8982 154.53 64.2989 152.5C65.7006 150.47 67.8086 149.106 70.2349 148.662L208.524 123.307L208.644 123.962C208.939 125.569 210.34 126.693 211.917 126.693C212.116 126.693 212.318 126.675 212.522 126.638H212.522L213.724 133.191C211.914 133.523 210.715 135.259 211.047 137.068L211.769 141.002C212.063 142.609 213.464 143.733 215.041 143.733C215.24 143.733 215.443 143.715 215.646 143.678C215.646 143.678 215.646 143.678 215.647 143.678L216.849 150.231C215.038 150.563 213.84 152.299 214.173 154.109L214.893 158.041C215.188 159.648 216.59 160.772 218.167 160.772C218.365 160.772 218.568 160.754 218.771 160.717L219.973 167.271C218.163 167.602 216.965 169.338 217.297 171.148L218.018 175.081C218.313 176.688 219.714 177.812 221.291 177.812C221.49 177.812 221.692 177.794 221.895 177.757C221.896 177.757 221.896 177.757 221.896 177.757L223.098 184.311C221.288 184.643 220.09 186.378 220.422 188.188L221.143 192.12C221.438 193.727 222.839 194.852 224.416 194.852C224.615 194.852 224.817 194.834 225.021 194.796C225.021 194.796 225.021 194.796 225.021 194.796L226.223 201.35C226.22 201.351 226.22 201.351 226.219 201.351ZM230.797 141.586L229.418 134.066C229.159 132.649 230.097 131.289 231.514 131.029L249.1 127.805C250.518 127.545 251.878 128.484 252.138 129.901L253.517 137.42C253.776 138.838 252.838 140.198 251.42 140.458L233.835 143.682C232.417 143.942 231.057 143.004 230.797 141.586ZM234.999 164.502L233.62 156.983C233.361 155.566 234.298 154.205 235.716 153.945L253.302 150.721C254.72 150.462 256.08 151.4 256.34 152.817L257.719 160.337C257.978 161.754 257.04 163.115 255.623 163.375L238.036 166.599C236.619 166.859 235.258 165.92 234.999 164.502ZM259.824 186.292L242.238 189.515C240.821 189.775 239.461 188.837 239.201 187.419L237.822 179.899C237.562 178.482 238.501 177.122 239.918 176.863L257.505 173.638C258.922 173.379 260.282 174.317 260.542 175.734L261.92 183.254C262.181 184.671 261.242 186.031 259.824 186.292Z" fill="#4285F4"/>
<path d="M163.377 229.743L160.039 230.369C158.23 230.707 157.039 232.448 157.378 234.257C157.678 235.858 159.076 236.975 160.648 236.975C160.852 236.975 161.058 236.957 161.266 236.918L164.604 236.292C166.412 235.954 167.603 234.213 167.265 232.404C166.926 230.595 165.184 229.399 163.377 229.743Z" fill="#FBBC05"/>
<path d="M219.837 219.164L177.233 227.147C175.424 227.486 174.233 229.226 174.572 231.035C174.872 232.636 176.271 233.753 177.843 233.753C178.046 233.753 178.253 233.735 178.46 233.696L221.064 225.713C222.873 225.374 224.063 223.633 223.725 221.825C223.387 220.016 221.64 218.824 219.837 219.164Z" fill="#FBBC05"/>
<path d="M190.952 112.915C191.155 112.915 191.362 112.896 191.569 112.857L198.245 111.606C200.054 111.268 201.245 109.526 200.906 107.719C200.567 105.909 198.82 104.718 197.018 105.058L190.342 106.309C188.534 106.648 187.342 108.388 187.681 110.197C187.981 111.798 189.379 112.915 190.952 112.915Z" fill="#FBBC05"/>
<path d="M134.491 123.494C134.694 123.494 134.9 123.475 135.108 123.436L177.712 115.454C179.52 115.115 180.711 113.375 180.373 111.566C180.033 109.757 178.293 108.564 176.485 108.905L133.881 116.886C132.073 117.225 130.882 118.966 131.22 120.775C131.52 122.376 132.919 123.494 134.491 123.494Z" fill="#4285F4"/>
<path d="M109.666 128.144C109.87 128.144 110.076 128.126 110.283 128.087L121.355 126.012C123.163 125.673 124.354 123.932 124.015 122.124C123.676 120.316 121.936 119.125 120.127 119.463L109.057 121.537C107.248 121.876 106.057 123.617 106.395 125.425C106.695 127.027 108.094 128.144 109.666 128.144Z" fill="#FBBC05"/>
</g>
<defs>
<clipPath id="clip0_39_2">
<rect width="340" height="340" fill="white"/>
</clipPath>
</defs>
</svg>
