<svg width="340" height="340" viewBox="0 0 340 340" fill="none" xmlns="http://www.w3.org/2000/svg">
<rect width="340" height="340" rx="81" fill="#FAFFFD"/>
<path fill-rule="evenodd" clip-rule="evenodd" d="M57.423 83.9458C56.5112 84.1775 55.971 84.6169 55.5576 85.4641L55.2319 86.1305V144.207V202.283L55.4464 202.742C56.2519 204.468 57.7008 204.813 60.5102 203.944C61.8576 203.527 62.1832 203.431 62.8752 203.242C63.0532 203.194 63.5796 203.039 64.0451 202.899C65.3775 202.497 70.3367 201.028 70.6677 200.938C70.8321 200.893 71.3471 200.741 71.8126 200.602C72.278 200.462 74.4069 199.832 76.543 199.203C78.679 198.573 81.6594 197.691 83.1651 197.243C84.6714 196.794 85.9936 196.405 86.103 196.377C88.8754 195.674 90.9487 193.955 92.1628 191.351C93.0113 189.532 92.933 194.579 92.9019 143.757L92.8744 98.5043L92.5978 97.7086C91.7888 95.3838 90.0853 93.3768 88.1058 92.4147C87.4975 92.1189 86.8791 91.9196 84.2107 91.1568C83.992 91.0939 83.6783 91.0035 83.514 90.9556C83.3497 90.9071 82.6548 90.7101 81.9701 90.5174C81.2859 90.324 80.3443 90.0539 79.8788 89.9162C79.4134 89.7791 78.8756 89.6235 78.6838 89.5708C78.492 89.5181 78.0439 89.3888 77.6884 89.2828C77.3323 89.1774 76.7945 89.0217 76.4934 88.9367C76.1916 88.8523 75.5422 88.6679 75.0492 88.5278C74.5563 88.3877 73.9958 88.229 73.8046 88.1752C73.6128 88.1219 73.142 87.9848 72.759 87.871C71.9016 87.6165 71.1774 87.4064 70.7173 87.2789C70.5255 87.2262 69.8085 87.0232 69.1238 86.8292C68.4397 86.6346 67.7 86.4263 67.4807 86.3664C67.262 86.3059 66.9704 86.2215 66.8336 86.1778C66.5581 86.091 65.6816 85.833 65.1409 85.6803C63.2826 85.1564 62.1689 84.8379 61.4561 84.6277C60.9906 84.4906 60.4302 84.3296 60.2115 84.2709C59.9922 84.2122 59.7084 84.123 59.5805 84.0727C59.3081 83.9661 57.7128 83.8721 57.423 83.9458ZM236.513 95.3053C236.488 95.3293 235.954 95.3993 235.326 95.4598C233.748 95.6125 232.781 95.7149 230.698 95.9496C229.712 96.0609 228.457 96.1998 227.909 96.2591C227.362 96.3178 226.556 96.4082 226.117 96.4597C225.679 96.5112 224.648 96.6231 223.827 96.7087C223.005 96.7949 221.997 96.9057 221.586 96.9554C221.176 97.0051 220.368 97.0961 219.794 97.1578C219.218 97.2194 218.389 97.3098 217.951 97.3583C217.513 97.4074 216.482 97.5182 215.661 97.6038C214.839 97.69 213.893 97.8044 213.558 97.8577C213.223 97.9116 212.756 97.9553 212.521 97.9553C212.285 97.9553 211.819 97.9972 211.487 98.0481C211.153 98.099 210.209 98.2127 209.387 98.3013C208.565 98.3899 207.593 98.5055 207.227 98.5582C206.86 98.6109 206.345 98.6552 206.082 98.6576C203.399 98.6773 200.584 101.026 199.927 103.793C199.707 104.715 199.706 183.252 199.925 184.199C200.439 186.42 202.094 188.246 204.299 189.025C204.693 189.165 205.779 189.328 207.794 189.551C208.341 189.612 209.619 189.755 210.632 189.87C212.544 190.086 213.378 190.176 215.063 190.35C216.139 190.461 219.121 190.791 220.491 190.95C220.956 191.004 221.808 191.097 222.383 191.156C222.958 191.215 223.966 191.327 224.623 191.405C225.28 191.482 226.289 191.595 226.864 191.655C229.107 191.891 229.746 191.959 230.947 192.098C231.632 192.177 232.662 192.291 233.237 192.353C233.812 192.414 234.641 192.511 235.079 192.568C238.734 193.041 240.837 191.885 241.369 189.111C241.567 188.075 241.561 99.8083 241.363 98.8809C241.062 97.4745 240.281 96.4255 239.098 95.8388C238.237 95.4113 236.719 95.0982 236.513 95.3053Z" fill="#4C7CBF"/>
<path fill-rule="evenodd" clip-rule="evenodd" d="M102.534 95.3269C100.718 95.7191 99.5063 96.8602 99.0522 98.6073C98.7803 99.6527 98.8245 188.696 99.0976 189.581C99.8833 192.131 101.66 193.002 105.263 192.603C106.008 192.52 108.051 192.297 109.804 192.107C111.557 191.916 113.416 191.713 113.936 191.655C114.457 191.597 115.069 191.53 115.298 191.506C115.92 191.44 119.243 191.073 120.21 190.964C120.676 190.911 121.482 190.819 122.003 190.761C122.523 190.701 123.98 190.543 125.239 190.408C126.499 190.272 127.933 190.115 128.426 190.057C128.919 190 130.555 189.819 132.061 189.655C135.135 189.32 135.298 189.296 135.994 189.101C138.118 188.507 140.122 186.314 140.575 184.09C140.788 183.053 140.796 104.946 140.585 103.992C139.986 101.288 137.593 98.9809 135.098 98.7001C134.879 98.6755 134.296 98.6109 133.803 98.5558C133.31 98.5013 132.347 98.3923 131.663 98.3133C130.978 98.2343 129.925 98.1181 129.322 98.0553C128.72 97.9924 127.667 97.8768 126.982 97.799C125.535 97.6344 124.287 97.4979 122.924 97.3542C122.39 97.2973 121.572 97.2081 121.106 97.1542C119.709 96.9943 117.634 96.7662 116.576 96.6561C116.028 96.5992 115.244 96.51 114.833 96.4573C114.422 96.4052 113.414 96.2938 112.592 96.2106C111.771 96.1268 110.921 96.034 110.704 96.0046C110.487 95.9747 109.882 95.9065 109.36 95.8526C108.837 95.7987 108.029 95.7131 107.564 95.6616C107.098 95.6101 106.09 95.4993 105.323 95.4149C103.986 95.2676 102.959 95.2353 102.534 95.3269Z" fill="#EF4F3F"/>
<path fill-rule="evenodd" clip-rule="evenodd" d="M151.081 99.67C149.9 100.001 149.635 100.105 149.116 100.441C148.338 100.947 147.47 101.913 147.105 102.68C146.448 104.059 146.496 100.598 146.525 144.324L146.55 184.022L146.79 184.684C147.294 186.075 148.393 187.31 149.661 187.912C150.892 188.496 149.77 188.468 170.522 188.439L189.57 188.412L190.267 188.123C192.172 187.332 193.279 186.048 193.761 184.071C193.959 183.259 193.96 104.763 193.762 103.942C193.244 101.795 191.565 100.137 189.463 99.6964C188.625 99.5209 151.705 99.4952 151.081 99.67Z" fill="#FCBA25"/>
<path fill-rule="evenodd" clip-rule="evenodd" d="M281.287 83.6853C280.848 83.7853 280.288 83.932 280.042 84.0116C279.795 84.0907 279.392 84.2122 279.145 84.2817C278.899 84.3505 278.578 84.4511 278.432 84.5044C278.286 84.5577 278.017 84.6379 277.834 84.6828C277.652 84.7277 276.808 84.975 275.959 85.2318C275.11 85.4887 274.258 85.7354 274.067 85.7797C273.875 85.8234 273.446 85.9533 273.112 86.0671C272.779 86.1808 272.264 86.3395 271.967 86.4197C271.442 86.5616 270.206 86.9232 268.49 87.4369C268.025 87.5764 267.352 87.7776 266.996 87.8842C266.64 87.9908 266.17 88.1273 265.951 88.1871C265.731 88.2476 265.373 88.3536 265.154 88.423C264.935 88.4925 264.576 88.5996 264.357 88.6613C264.139 88.723 263.646 88.8667 263.262 88.9804C262.541 89.1942 261.861 89.3924 261.171 89.5893C260.951 89.6522 260.459 89.8025 260.076 89.924C259.692 90.0456 259.199 90.194 258.98 90.2545C258.761 90.3144 258.201 90.4778 257.735 90.6179C257.27 90.758 256.709 90.9227 256.491 90.9844C255.875 91.158 255.432 91.2885 254.997 91.4244C254.777 91.4927 254.396 91.604 254.15 91.6717C250.866 92.5764 248.39 95.1437 247.624 98.4355C247.356 99.5904 247.409 188.757 247.679 189.818C248.449 192.848 250.984 195.44 253.951 196.23C254.362 196.339 257.118 197.122 260.076 197.969C263.033 198.817 265.543 199.534 265.652 199.564C265.761 199.593 268.607 200.413 271.975 201.386C275.344 202.358 278.257 203.196 278.449 203.248C279.034 203.405 279.351 203.494 280.483 203.818C282.84 204.491 284.362 203.985 284.971 202.326C285.169 201.786 285.171 201.537 285.171 143.758V85.7312L284.893 85.1827C284.154 83.7189 283.083 83.2746 281.287 83.6853Z" fill="#31B161"/>
<path fill-rule="evenodd" clip-rule="evenodd" d="M281.237 83.2585C281.1 83.2836 280.945 83.3447 280.893 83.395C280.841 83.4453 280.698 83.486 280.574 83.486C280.451 83.486 280.247 83.5273 280.121 83.577C279.996 83.6267 279.623 83.7434 279.295 83.8362C278.221 84.1398 278.003 84.208 277.827 84.2966C277.732 84.3451 277.579 84.384 277.486 84.384C277.313 84.384 276.797 84.5325 276.357 84.7092C276.102 84.8115 275.679 84.9325 275.063 85.0792C274.871 85.1247 274.333 85.2833 273.868 85.4312C273.402 85.5791 272.876 85.7408 272.698 85.7904C272.52 85.8401 272.228 85.9222 272.05 85.9725C271.872 86.0228 271.39 86.1587 270.98 86.2742C270.569 86.3898 270.143 86.5251 270.033 86.5742C269.924 86.6239 269.723 86.6855 269.585 86.7113C269.203 86.7825 267.864 87.1855 267.67 87.2873C267.575 87.3369 267.409 87.3777 267.301 87.3777C267.193 87.3777 267.002 87.4178 266.877 87.4663C266.751 87.5148 266.245 87.6764 265.752 87.8255C265.259 87.974 264.752 88.1362 264.627 88.1859C264.501 88.2356 264.29 88.2757 264.159 88.2757C264.029 88.2757 263.893 88.3206 263.859 88.3757C263.825 88.4308 263.7 88.4757 263.58 88.4763C263.46 88.4763 263.233 88.544 263.076 88.626C262.92 88.708 262.687 88.7751 262.559 88.7751C262.432 88.7751 262.3 88.82 262.266 88.8745C262.232 88.9295 262.072 88.9744 261.91 88.9744C261.748 88.9744 261.538 89.0152 261.443 89.0643C261.348 89.114 261.002 89.2313 260.673 89.3259C260.344 89.4211 259.997 89.5372 259.902 89.5857C259.807 89.6336 259.62 89.6732 259.485 89.6732C259.351 89.6732 259.213 89.7181 259.179 89.7725C259.145 89.8276 259.019 89.8737 258.899 89.8749C258.779 89.8755 258.367 89.9881 257.984 90.1234C257.601 90.2593 257.189 90.3707 257.069 90.3713C256.949 90.3713 256.823 90.4162 256.789 90.4713C256.755 90.5263 256.599 90.5712 256.44 90.5712C256.283 90.5712 256.126 90.6161 256.092 90.6706C256.058 90.7257 255.939 90.7706 255.827 90.7706C255.716 90.7706 255.483 90.8341 255.31 90.9113C255.138 90.9885 254.884 91.0754 254.748 91.1041C254.611 91.1322 254.342 91.2011 254.15 91.2568C253.958 91.3125 253.643 91.3987 253.45 91.4478C252.953 91.5753 251.278 92.4129 250.867 92.7404C250.31 93.1835 249.171 94.2881 249.171 94.3845C249.171 94.4336 249.037 94.6168 248.872 94.7922C248.709 94.9677 248.574 95.1419 248.574 95.179C248.574 95.2161 248.517 95.3059 248.448 95.3784C248.344 95.4885 248.085 95.9867 247.462 97.2805C247.416 97.3757 247.379 97.5577 247.379 97.6847C247.379 97.8116 247.34 97.9583 247.293 98.0104C246.99 98.3462 246.98 99.752 246.98 143.994C246.98 187.821 246.993 189.802 247.287 190.103C247.337 190.155 247.379 190.294 247.379 190.411C247.379 190.528 247.408 190.654 247.444 190.69C247.481 190.727 247.592 190.989 247.692 191.274C247.793 191.559 247.909 191.818 247.95 191.849C247.992 191.879 248.153 192.148 248.309 192.445C248.464 192.742 248.643 193.039 248.707 193.105C248.771 193.171 248.957 193.399 249.12 193.612C249.723 194.398 251.366 195.846 251.655 195.846C251.715 195.846 251.942 195.959 252.159 196.096C252.375 196.233 252.613 196.345 252.687 196.345C252.761 196.345 252.853 196.377 252.892 196.415C252.93 196.453 253.262 196.569 253.63 196.672C253.998 196.776 254.523 196.929 254.797 197.014C255.071 197.099 255.441 197.19 255.62 197.217C255.799 197.244 255.969 197.305 255.999 197.354C256.029 197.403 256.15 197.443 256.269 197.443C256.387 197.443 256.664 197.505 256.885 197.582C257.106 197.659 257.488 197.775 257.735 197.841C257.981 197.907 258.261 198.002 258.356 198.051C258.451 198.101 258.661 198.141 258.823 198.141C258.985 198.141 259.145 198.186 259.179 198.241C259.213 198.296 259.345 198.341 259.472 198.341C259.6 198.341 259.832 198.408 259.989 198.49C260.146 198.572 260.398 198.639 260.548 198.64C260.699 198.64 260.822 198.685 260.822 198.74C260.822 198.795 260.957 198.84 261.122 198.84C261.287 198.84 261.5 198.881 261.595 198.93C261.69 198.98 262.06 199.097 262.415 199.191C262.771 199.284 263.153 199.397 263.262 199.442C263.456 199.521 263.746 199.591 264.357 199.707C264.521 199.738 264.701 199.798 264.756 199.842C264.811 199.885 265.024 199.951 265.23 199.99C265.436 200.028 265.629 200.1 265.659 200.149C265.689 200.197 265.865 200.237 266.05 200.237C266.236 200.237 266.415 200.282 266.448 200.337C266.482 200.392 266.62 200.437 266.754 200.437C266.889 200.437 267.077 200.477 267.172 200.527C267.267 200.577 267.636 200.693 267.992 200.786C268.348 200.879 268.717 200.995 268.812 201.044C268.908 201.094 269.095 201.135 269.23 201.135C269.364 201.135 269.502 201.18 269.536 201.235C269.57 201.29 269.718 201.336 269.865 201.338C270.012 201.34 270.245 201.406 270.382 201.484C270.519 201.563 270.774 201.629 270.949 201.631C271.124 201.632 271.294 201.679 271.328 201.734C271.362 201.789 271.5 201.834 271.634 201.834C271.769 201.834 271.956 201.874 272.052 201.923C272.147 201.973 272.426 202.068 272.673 202.133C272.919 202.199 273.302 202.316 273.522 202.393C273.743 202.469 274.021 202.532 274.139 202.532C274.257 202.532 274.381 202.577 274.415 202.632C274.449 202.687 274.584 202.732 274.715 202.732C274.846 202.732 275.057 202.771 275.182 202.818C275.308 202.866 275.68 202.984 276.008 203.079C276.337 203.175 276.696 203.29 276.805 203.335C276.915 203.379 277.128 203.441 277.278 203.472C277.429 203.504 277.675 203.555 277.826 203.587C277.977 203.619 278.189 203.682 278.299 203.728C278.693 203.893 279.535 204.128 279.731 204.128C279.841 204.128 279.958 204.173 279.992 204.228C280.026 204.283 280.151 204.329 280.272 204.33C280.392 204.33 280.669 204.394 280.889 204.471C282.488 205.029 284.863 204.191 285.184 202.956C285.215 202.833 285.282 202.732 285.331 202.732C285.379 202.732 285.419 202.606 285.419 202.452C285.419 202.299 285.475 202.117 285.544 202.048C285.643 201.948 285.668 190.177 285.668 143.857C285.668 97.5374 285.643 85.7659 285.544 85.6665C285.475 85.5977 285.419 85.4162 285.419 85.2624C285.419 85.1085 285.374 84.9828 285.32 84.9828C285.265 84.9828 285.22 84.9247 285.22 84.8534C285.22 84.7816 284.998 84.4745 284.728 84.1703C283.986 83.3363 282.689 82.9974 281.237 83.2585ZM56.9254 83.6746C56.3973 83.8446 55.2853 84.8582 55.2787 85.175C55.2769 85.2618 55.21 85.4192 55.1294 85.5258C55.0493 85.6324 54.9836 85.8431 54.9836 85.994C54.9836 86.1449 54.9388 86.2964 54.8838 86.3299C54.7458 86.4155 54.7458 202.133 54.8838 202.133C54.9388 202.133 54.983 202.211 54.983 202.308C54.9824 202.536 55.3104 203.47 55.4066 203.514C55.4478 203.531 55.4813 203.592 55.4813 203.648C55.4813 203.794 56.3841 204.628 56.543 204.628C56.6159 204.628 56.6763 204.673 56.6763 204.727C56.6763 204.782 56.8018 204.827 56.9553 204.827C57.1083 204.827 57.2839 204.877 57.3455 204.938C57.5008 205.095 59.1679 204.951 59.7134 204.734C59.8233 204.691 60.1818 204.577 60.5104 204.482C60.8391 204.386 61.1856 204.268 61.2806 204.218C61.3756 204.169 61.5859 204.128 61.7479 204.128C61.9098 204.128 62.0675 204.088 62.098 204.037C62.1291 203.987 62.3334 203.916 62.5515 203.879C62.7702 203.842 62.9745 203.771 63.005 203.721C63.0361 203.67 63.1902 203.63 63.3486 203.63C63.5063 203.63 63.6629 203.585 63.6969 203.53C63.731 203.475 63.8815 203.43 64.0315 203.43C64.1815 203.43 64.347 203.389 64.399 203.339C64.451 203.288 64.6278 203.226 64.7921 203.2C64.9564 203.174 65.2032 203.109 65.34 203.055C65.8264 202.863 66.3032 202.732 66.5111 202.732C66.6277 202.732 66.7501 202.687 66.7842 202.632C66.8177 202.577 66.9682 202.532 67.1188 202.532C67.2688 202.532 67.4414 202.482 67.503 202.42C67.5645 202.359 67.7862 202.272 67.9959 202.227C68.2057 202.183 68.5456 202.098 68.7506 202.039C68.9561 201.981 69.2925 201.886 69.4974 201.827C69.703 201.768 70.043 201.684 70.2527 201.64C70.4624 201.595 70.6841 201.508 70.7456 201.446C70.8066 201.385 70.9798 201.335 71.1298 201.335C71.2798 201.335 71.4304 201.29 71.4644 201.235C71.4985 201.18 71.655 201.135 71.8128 201.135C71.9711 201.135 72.1276 201.09 72.1617 201.035C72.1952 200.98 72.3153 200.935 72.4276 200.935C72.6379 200.935 73.5192 200.676 73.8281 200.522C73.9231 200.475 74.1113 200.437 74.2458 200.437C74.3802 200.437 74.5176 200.392 74.5517 200.337C74.5852 200.282 74.7423 200.237 74.9 200.237C75.0578 200.237 75.2125 200.196 75.243 200.146C75.2741 200.095 75.4784 200.024 75.6965 199.988C75.9152 199.951 76.1195 199.879 76.15 199.829C76.1811 199.779 76.3514 199.738 76.5294 199.738C76.7069 199.738 76.8945 199.696 76.9465 199.645C76.9985 199.593 77.1532 199.533 77.29 199.51C77.4269 199.488 77.6061 199.446 77.6886 199.418C77.7704 199.39 78.1068 199.289 78.4354 199.193C78.7641 199.098 79.1106 198.979 79.2056 198.93C79.3006 198.881 79.5133 198.84 79.6788 198.84C79.8438 198.84 79.9788 198.805 79.9788 198.763C79.9788 198.684 80.6665 198.473 81.2497 198.374C81.4277 198.344 81.5986 198.279 81.6285 198.23C81.659 198.181 81.7934 198.141 81.9278 198.141C82.0623 198.141 82.2499 198.101 82.3455 198.051C82.4405 198.002 82.7195 197.907 82.9663 197.84C83.2131 197.773 83.5835 197.656 83.7896 197.581C83.9964 197.505 84.2545 197.443 84.3638 197.443C84.4732 197.443 84.6399 197.402 84.7355 197.353C84.8305 197.304 85.1095 197.208 85.3563 197.141C86.1336 196.931 86.7939 196.723 86.9731 196.632C87.0681 196.585 87.2187 196.545 87.3071 196.545C87.3962 196.545 87.6764 196.439 87.9309 196.31C89.5233 195.501 90.5874 194.624 91.5177 193.351C91.7388 193.05 91.9551 192.758 91.9987 192.703C92.0865 192.592 92.8095 191.122 92.9308 190.807C93.1292 190.293 93.257 189.868 93.3532 189.41C93.496 188.73 93.5641 99.2551 93.4225 99.1126C93.3676 99.0581 93.3228 98.8731 93.3228 98.7013C93.3228 98.3708 93.0563 97.4709 92.9117 97.3117C92.8639 97.2596 92.825 97.1374 92.825 97.0404C92.825 96.7776 92.2616 95.7879 91.584 94.8605C90.7589 93.7313 88.9234 92.1926 88.1783 92.0052C88.0504 91.9728 87.9453 91.9064 87.9453 91.8573C87.9453 91.8088 87.8736 91.7687 87.7863 91.7687C87.6985 91.7687 87.4858 91.7052 87.3131 91.628C86.9958 91.4855 86.669 91.3993 86.0775 91.3011C85.8988 91.2717 85.7279 91.2077 85.6981 91.1586C85.6682 91.1101 85.5511 91.07 85.4387 91.07C85.2547 91.07 84.5389 90.8658 84.0119 90.6628C83.9026 90.6203 83.7006 90.5635 83.5638 90.5353C83.2794 90.4778 82.8546 90.3605 82.07 90.1228C81.7689 90.0312 81.3763 89.933 81.1977 89.9037C81.019 89.8743 80.8487 89.8103 80.8183 89.7618C80.7884 89.7127 80.654 89.6732 80.5195 89.6732C80.3851 89.6732 80.1969 89.6324 80.1019 89.5822C79.8252 89.4373 78.4701 89.0505 78.0614 88.9996C77.8553 88.9744 77.6623 88.9134 77.6318 88.8643C77.6019 88.8152 77.4693 88.7751 77.3372 88.7751C77.2058 88.7751 76.9507 88.7128 76.7708 88.6374C76.2629 88.4236 75.7533 88.2757 75.5214 88.2757C75.4049 88.2757 75.2824 88.2308 75.2484 88.1764C75.2149 88.1213 75.0769 88.0764 74.9425 88.0764C74.808 88.0764 74.6204 88.0345 74.5254 87.9836C74.2613 87.8429 73.3442 87.5776 73.1195 87.5776C73.0101 87.5776 72.8924 87.5327 72.8584 87.4776C72.8249 87.4226 72.6648 87.3777 72.5029 87.3777C72.3409 87.3777 72.1306 87.3369 72.0356 87.2873C71.8671 87.1992 71.1412 86.9879 70.9912 86.9831C70.9494 86.9819 70.7534 86.913 70.5556 86.8304C70.3572 86.7472 70.1105 86.6795 70.0071 86.6795C69.9031 86.6795 69.7406 86.6388 69.6456 86.5885C69.3923 86.4562 67.751 85.9874 66.9832 85.8282C66.8189 85.794 66.5948 85.7288 66.4854 85.6827C66.2799 85.5971 65.4739 85.3546 64.8172 85.1815C64.6117 85.1271 64.2532 85.0325 64.0208 84.9714C63.7877 84.9103 63.4848 84.8193 63.3468 84.7696C63.2094 84.7199 62.9644 84.6547 62.8025 84.6253C62.6405 84.596 62.4619 84.5355 62.4057 84.4906C62.349 84.4457 62.1685 84.3846 62.0042 84.3553C61.709 84.3014 61.5352 84.2541 60.4603 83.9368C60.1591 83.8476 59.7785 83.7506 59.6142 83.7207C59.4499 83.6907 59.2396 83.6255 59.1476 83.5758C58.8847 83.4351 57.4757 83.4979 56.9254 83.6746ZM283.113 83.6488C284.03 83.9135 284.423 84.2523 284.893 85.1827L285.17 85.7312V143.757C285.17 201.537 285.169 201.786 284.971 202.326C284.361 203.985 282.84 204.491 280.482 203.818C279.351 203.494 279.034 203.405 278.449 203.248C278.257 203.196 275.344 202.358 271.975 201.386C268.607 200.413 265.761 199.593 265.652 199.564C265.543 199.534 263.033 198.817 260.075 197.969C257.118 197.122 254.362 196.339 253.951 196.23C250.984 195.44 248.449 192.848 247.679 189.818C247.409 188.757 247.356 99.5904 247.624 98.4355C248.39 95.1437 250.866 92.5764 254.15 91.6717C254.396 91.604 254.777 91.4927 254.997 91.4244C255.432 91.2885 255.875 91.158 256.49 90.9844C256.709 90.9227 257.27 90.758 257.735 90.6179C258.201 90.4778 258.761 90.3144 258.98 90.2545C259.199 90.194 259.692 90.0456 260.075 89.924C260.458 89.8025 260.951 89.6522 261.171 89.5893C261.861 89.3924 262.541 89.1942 263.262 88.9804C263.646 88.8667 264.138 88.723 264.357 88.6613C264.576 88.5996 264.935 88.4925 265.154 88.423C265.373 88.3536 265.731 88.2476 265.951 88.1871C266.17 88.1273 266.64 87.9907 266.996 87.8842C267.352 87.7776 268.025 87.5764 268.49 87.4369C270.206 86.9232 271.442 86.5616 271.967 86.4197C272.264 86.3395 272.779 86.1808 273.112 86.0671C273.446 85.9533 273.875 85.8234 274.067 85.7797C274.258 85.7354 275.11 85.4887 275.959 85.2318C276.808 84.975 277.652 84.7277 277.834 84.6828C278.017 84.6379 278.286 84.5577 278.432 84.5044C278.578 84.4511 278.899 84.3505 279.145 84.2817C279.392 84.2122 279.795 84.0907 280.042 84.0116C281.552 83.5255 282.357 83.4303 283.113 83.6488ZM59.5807 84.0727C59.7086 84.123 59.9924 84.2122 60.2117 84.2709C60.4304 84.3296 60.9908 84.4906 61.4563 84.6277C62.1691 84.8379 63.2828 85.1564 65.1411 85.6803C65.6818 85.833 66.5583 86.091 66.8338 86.1778C66.9706 86.2215 67.2622 86.3059 67.4809 86.3664C67.7002 86.4263 68.4399 86.6346 69.124 86.8292C69.8087 87.0232 70.5257 87.2262 70.7175 87.2789C71.1776 87.4064 71.9018 87.6165 72.7592 87.871C73.1422 87.9848 73.613 88.1219 73.8048 88.1752C73.996 88.229 74.5565 88.3877 75.0494 88.5278C75.5424 88.6679 76.1918 88.8523 76.4936 88.9367C76.7947 89.0217 77.3325 89.1774 77.6886 89.2828C78.0441 89.3888 78.4922 89.5181 78.684 89.5708C78.8758 89.6235 79.4136 89.7791 79.879 89.9162C80.3445 90.0539 81.2861 90.324 81.9703 90.5174C82.655 90.7101 83.3499 90.9071 83.5142 90.9556C83.6785 91.0035 83.9922 91.0939 84.2109 91.1568C86.8793 91.9196 87.4977 92.1189 88.106 92.4147C90.0855 93.3769 91.789 95.3838 92.598 97.7086L92.8746 98.5043L92.9021 143.757C92.9332 194.579 93.0115 189.532 92.163 191.351C90.9489 193.955 88.8756 195.674 86.1032 196.377C85.9938 196.405 84.6716 196.794 83.1653 197.243C81.6596 197.691 78.6792 198.573 76.5432 199.203C74.4071 199.832 72.2782 200.462 71.8128 200.602C71.3473 200.741 70.8323 200.893 70.6679 200.938C70.3369 201.028 65.3777 202.497 64.0453 202.899C63.5798 203.039 63.0534 203.194 62.8754 203.242C62.1834 203.431 61.8578 203.527 60.5104 203.944C57.701 204.813 56.2521 204.468 55.4466 202.742L55.2321 202.283V144.207V86.1305L55.5578 85.4641C55.9712 84.617 56.5114 84.1775 57.4232 83.9458C57.713 83.8721 59.3083 83.9661 59.5807 84.0727ZM102.584 94.9335C102.338 94.9563 102.093 95.0162 102.041 95.0676C101.989 95.1191 101.871 95.161 101.777 95.161C101.114 95.161 99.529 96.4974 99.1113 97.408C99.0367 97.5715 98.913 97.8248 98.8377 97.9708C98.7624 98.1163 98.7003 98.372 98.7003 98.5384C98.7003 98.7055 98.6554 98.8695 98.6011 98.9031C98.5348 98.9444 98.5013 114.105 98.5013 144.063C98.5013 174.061 98.5348 189.16 98.6011 189.16C98.6554 189.16 98.7003 189.306 98.7003 189.484C98.7003 190.373 99.9568 192.084 100.991 192.604C101.292 192.755 101.615 192.917 101.709 192.964C102.043 193.131 103.34 193.274 103.928 193.209C104.257 193.173 104.862 193.121 105.273 193.094C105.684 193.067 106.087 193.017 106.169 192.984C106.251 192.95 106.789 192.883 107.364 192.833C107.939 192.784 108.791 192.704 109.256 192.655C109.722 192.606 110.604 192.523 111.217 192.47C111.829 192.417 112.386 192.339 112.454 192.297C112.522 192.255 113.029 192.182 113.581 192.134C116.29 191.901 118.35 191.679 118.916 191.559C119.162 191.507 119.641 191.462 119.98 191.46C120.318 191.458 120.707 191.413 120.844 191.361C120.98 191.309 121.464 191.259 121.921 191.249C122.377 191.239 122.818 191.195 122.901 191.152C122.984 191.109 123.433 191.05 123.897 191.02C124.611 190.975 126.021 190.813 127.48 190.61C127.672 190.584 128.142 190.536 128.526 190.505C130.675 190.328 133.025 190.071 133.405 189.97C133.57 189.927 134.04 189.881 134.451 189.868C134.862 189.856 135.24 189.804 135.292 189.753C135.344 189.702 135.526 189.66 135.696 189.66C135.865 189.66 136.047 189.617 136.099 189.566C136.151 189.514 136.315 189.45 136.463 189.423C138.057 189.137 140.286 186.767 140.84 184.77C140.893 184.578 140.99 184.286 141.055 184.122C141.206 183.738 141.279 105.334 141.129 104.514C140.798 102.706 140.332 101.727 139.227 100.515C138.721 99.9604 137.181 98.8534 136.916 98.8534C136.842 98.8534 136.738 98.815 136.686 98.7677C136.504 98.6037 135.555 98.3546 135.11 98.3546C134.863 98.3546 134.637 98.3151 134.608 98.2672C134.578 98.2187 134.139 98.172 133.632 98.163C133.125 98.1535 132.666 98.1032 132.614 98.0505C132.562 97.9984 132.089 97.9553 131.563 97.9553C131.037 97.9553 130.564 97.9128 130.512 97.8607C130.425 97.7727 129.627 97.6709 127.281 97.4488C123.714 97.1117 122.4 96.962 122.046 96.8524C121.877 96.8003 121.354 96.7578 120.881 96.7578C120.409 96.7578 119.995 96.7129 119.962 96.6578C119.928 96.6034 119.519 96.5585 119.053 96.5585C118.587 96.5585 118.126 96.5154 118.027 96.4627C117.929 96.41 117.438 96.3447 116.937 96.3184C116.436 96.2914 115.979 96.2399 115.921 96.2046C115.805 96.1328 114.092 95.9681 112.692 95.8939C112.199 95.8675 111.753 95.8041 111.701 95.7532C111.649 95.7023 111.33 95.6604 110.993 95.6604C110.655 95.6604 110.138 95.6113 109.842 95.552C109.31 95.4442 108.14 95.3149 106.418 95.173C105.925 95.1323 105.455 95.0718 105.373 95.0383C105.175 94.9581 103.155 94.882 102.584 94.9335ZM235.188 95.0365C235.147 95.0778 234.703 95.1419 234.201 95.1796C232.178 95.3299 231.054 95.4442 230.947 95.5107C230.885 95.549 230.379 95.6227 229.82 95.6747C229.262 95.7262 228.38 95.8083 227.86 95.8568C226.222 96.0094 224.93 96.1477 224.723 96.1932C224.614 96.2178 224.086 96.2705 223.551 96.3112C223.016 96.3513 222.554 96.4237 222.524 96.4716C222.495 96.5189 222.067 96.5585 221.574 96.5585C221.081 96.5585 220.6 96.5992 220.507 96.6495C220.413 96.6998 219.935 96.765 219.443 96.7956C218.285 96.8662 216.386 97.0895 216.258 97.1692C216.204 97.2033 215.758 97.2404 215.267 97.2506C214.777 97.2614 214.329 97.3009 214.272 97.338C214.214 97.3757 213.764 97.4362 213.271 97.4727C211.555 97.5996 210.183 97.7589 209.985 97.8541C209.875 97.9068 209.382 97.9714 208.889 97.9984C205.105 98.2043 203.614 98.5648 202.199 99.6155C201.497 100.137 200.392 101.422 200.11 102.046C200.048 102.184 199.895 102.521 199.77 102.795C199.646 103.07 199.499 103.519 199.444 103.793C199.301 104.503 199.306 183.54 199.448 184.221C199.57 184.8 199.767 185.378 199.89 185.514C199.938 185.566 199.977 185.665 199.977 185.734C199.977 186.14 201.298 187.793 202.142 188.443C202.793 188.945 204.276 189.66 204.667 189.66C204.779 189.66 204.947 189.701 205.041 189.751C205.135 189.802 205.502 189.855 205.856 189.869C206.21 189.883 206.679 189.931 206.898 189.975C207.449 190.087 210.437 190.403 211.927 190.507C212.338 190.536 212.897 190.602 213.172 190.654C213.972 190.806 217.522 191.189 220.401 191.435C220.982 191.485 221.506 191.556 221.567 191.594C221.628 191.631 222.184 191.709 222.802 191.766C223.421 191.823 224.33 191.91 224.823 191.959C225.316 192.008 226.192 192.087 226.77 192.134C227.348 192.18 227.876 192.252 227.943 192.293C228.009 192.335 228.567 192.414 229.182 192.471C229.797 192.527 230.703 192.614 231.196 192.665C231.689 192.715 232.495 192.796 232.988 192.846C233.481 192.894 234.512 193.009 235.279 193.099C238.974 193.538 240.871 192.471 241.843 189.41C242.078 188.669 242.087 99.3527 241.852 98.7887C241.769 98.5911 241.702 98.3229 241.702 98.1924C241.702 98.0618 241.658 97.9553 241.603 97.9553C241.548 97.9553 241.503 97.8685 241.503 97.7631C241.503 97.6571 241.447 97.511 241.378 97.4386C241.31 97.3661 241.188 97.1793 241.108 97.0243C240.921 96.6602 240.206 95.9442 239.843 95.7562C239.688 95.6759 239.539 95.5843 239.511 95.5526C239.41 95.4347 238.778 95.161 238.605 95.161C238.508 95.161 238.4 95.1161 238.366 95.0617C238.294 94.9449 235.302 94.9216 235.188 95.0365ZM105.323 95.4149C106.09 95.4993 107.098 95.6101 107.564 95.6616C108.029 95.7131 108.837 95.7987 109.36 95.8526C109.882 95.9065 110.487 95.9747 110.704 96.0046C110.921 96.034 111.771 96.1268 112.592 96.2106C113.414 96.2938 114.422 96.4052 114.833 96.4573C115.244 96.51 116.028 96.5992 116.576 96.6561C117.634 96.7662 119.709 96.9943 121.107 97.1542C121.572 97.2081 122.39 97.2973 122.924 97.3542C124.287 97.4979 125.535 97.6344 126.982 97.799C127.667 97.8768 128.72 97.9924 129.322 98.0553C129.925 98.1181 130.978 98.2343 131.663 98.3133C132.347 98.3923 133.31 98.5013 133.803 98.5558C134.296 98.6109 134.879 98.6755 135.098 98.7001C137.593 98.9809 139.986 101.288 140.585 103.992C140.797 104.946 140.788 183.053 140.575 184.09C140.122 186.314 138.118 188.507 135.994 189.101C135.298 189.296 135.135 189.32 132.061 189.655C130.555 189.819 128.919 190 128.426 190.057C127.933 190.115 126.499 190.272 125.239 190.408C123.98 190.543 122.523 190.701 122.003 190.761C121.482 190.819 120.676 190.911 120.21 190.964C119.244 191.073 115.92 191.44 115.298 191.506C115.069 191.53 114.457 191.597 113.937 191.655C113.416 191.713 111.557 191.916 109.804 192.107C108.051 192.297 106.008 192.52 105.263 192.603C101.66 193.002 99.8833 192.131 99.0976 189.581C98.8245 188.696 98.7803 99.6527 99.0522 98.6073C99.5063 96.8602 100.718 95.7191 102.534 95.3269C102.959 95.2353 103.986 95.2676 105.323 95.4149ZM237.777 95.3682C239.607 95.7005 240.967 97.0332 241.363 98.8809C241.561 99.8083 241.567 188.075 241.369 189.111C240.837 191.885 238.735 193.041 235.08 192.568C234.642 192.511 233.812 192.414 233.238 192.353C232.662 192.291 231.632 192.177 230.947 192.098C229.746 191.959 229.108 191.891 226.864 191.655C226.289 191.595 225.281 191.482 224.623 191.405C223.966 191.327 222.958 191.215 222.383 191.156C221.808 191.097 220.957 191.004 220.491 190.95C219.121 190.791 216.139 190.461 215.063 190.35C213.378 190.176 212.544 190.086 210.632 189.87C209.619 189.756 208.342 189.612 207.794 189.551C205.779 189.328 204.693 189.165 204.299 189.025C202.094 188.246 200.44 186.42 199.925 184.199C199.706 183.252 199.708 104.715 199.927 103.793C200.584 101.026 203.4 98.6773 206.082 98.6576C206.345 98.6552 206.86 98.6109 207.227 98.5582C207.593 98.5055 208.566 98.3899 209.387 98.3013C210.209 98.2127 211.153 98.099 211.487 98.0481C211.82 97.9972 212.285 97.9553 212.521 97.9553C212.756 97.9553 213.224 97.9116 213.558 97.8577C213.893 97.8044 214.839 97.69 215.661 97.6038C216.482 97.5182 217.513 97.4074 217.952 97.3584C218.39 97.3099 219.218 97.2194 219.794 97.1578C220.369 97.0961 221.176 97.0051 221.586 96.9554C221.997 96.9057 223.005 96.795 223.827 96.7087C224.648 96.6231 225.679 96.5112 226.117 96.4597C226.556 96.4082 227.362 96.3178 227.91 96.2591C228.458 96.1998 229.712 96.0609 230.698 95.9496C232.782 95.7149 233.748 95.6125 235.326 95.4598C235.954 95.3993 236.489 95.3293 236.513 95.3053C236.59 95.2287 237.166 95.2568 237.777 95.3682ZM151.131 99.3246C150.967 99.3479 150.79 99.409 150.738 99.4599C150.686 99.5102 150.537 99.5521 150.408 99.5521C150.172 99.5521 149.172 99.9939 148.891 100.222C148.808 100.289 148.586 100.447 148.395 100.573C147.777 100.985 146.982 102.122 146.495 103.294C146.449 103.404 146.381 103.695 146.342 103.942C146.117 105.376 146.282 184.77 146.51 184.77C146.559 184.77 146.6 184.883 146.6 185.02C146.6 185.157 146.634 185.269 146.675 185.269C146.716 185.269 146.832 185.472 146.933 185.718C147.035 185.965 147.158 186.167 147.208 186.167C147.257 186.167 147.297 186.226 147.297 186.299C147.297 187.057 149.624 188.509 151.33 188.814C152.351 188.998 188.046 189.035 188.94 188.854C190.486 188.541 191.466 188.08 192.297 187.276C192.85 186.742 193.604 185.781 193.604 185.611C193.604 185.567 193.691 185.349 193.798 185.126C194.33 184.013 194.3 186.467 194.298 144.107C194.297 101.65 194.327 103.97 193.77 102.861C193.261 101.846 193.195 101.754 192.392 100.939C191.706 100.243 190.516 99.5521 190.003 99.5521C189.869 99.5521 189.704 99.4958 189.635 99.4269C189.514 99.3066 151.945 99.206 151.131 99.3246ZM189.464 99.6964C191.565 100.137 193.244 101.795 193.763 103.942C193.96 104.763 193.959 183.259 193.761 184.071C193.28 186.048 192.172 187.332 190.267 188.123L189.57 188.412L170.522 188.439C149.77 188.468 150.892 188.496 149.662 187.912C148.393 187.31 147.294 186.075 146.79 184.684L146.55 184.022L146.525 144.324C146.497 100.598 146.448 104.059 147.105 102.68C147.471 101.913 148.338 100.947 149.117 100.441C149.635 100.105 149.9 100.001 151.081 99.67C151.705 99.4952 188.625 99.5209 189.464 99.6964ZM146.72 210.834C146.628 210.926 146.6 213.101 146.6 220.019V229.083L146.177 228.587C145.944 228.315 145.714 228.089 145.666 228.085C145.617 228.081 145.505 227.995 145.417 227.893C145.169 227.61 143.669 226.699 143.218 226.558C142.997 226.489 142.816 226.398 142.816 226.357C142.816 226.315 142.689 226.281 142.533 226.281C142.379 226.281 142.218 226.248 142.177 226.206C141.87 225.899 137.526 225.604 137.205 225.869C137.142 225.921 136.876 225.995 136.616 226.034C136.355 226.073 136.117 226.145 136.087 226.193C136.057 226.242 135.923 226.281 135.788 226.281C135.654 226.281 135.466 226.321 135.371 226.37C135.276 226.418 135.064 226.518 134.899 226.592C133.627 227.162 131.264 229.161 131.264 229.666C131.264 229.717 131.231 229.772 131.189 229.79C131.059 229.849 130.567 230.661 130.567 230.819C130.567 230.903 130.523 230.972 130.468 230.972C130.413 230.972 130.368 231.035 130.368 231.113C130.368 231.191 130.293 231.404 130.202 231.587C129.891 232.208 129.87 232.266 129.87 232.496C129.87 232.623 129.83 232.77 129.78 232.822C129.731 232.874 129.666 233.097 129.635 233.316C129.604 233.536 129.536 233.985 129.484 234.314C129.431 234.643 129.389 235.452 129.389 236.11C129.389 236.769 129.431 237.577 129.484 237.907C129.536 238.236 129.602 238.685 129.63 238.905C129.659 239.124 129.718 239.393 129.762 239.503C129.806 239.613 129.899 239.882 129.967 240.102C130.086 240.483 130.19 240.743 130.512 241.478C131.398 243.496 134.615 246.338 136.013 246.338C136.122 246.338 136.241 246.369 136.278 246.407C136.708 246.837 140.016 246.987 141.368 246.637C143.537 246.075 145.468 244.918 146.446 243.594C146.579 243.415 146.594 243.535 146.597 244.797C146.599 245.75 146.638 246.237 146.72 246.319C146.906 246.505 148.592 246.477 148.868 246.283L149.09 246.128V228.577V211.025L148.868 210.87C148.592 210.675 146.906 210.648 146.72 210.834ZM59.5395 210.89C59.3166 210.939 59.2623 246.295 59.4845 246.518C59.6943 246.728 61.4898 246.677 61.6899 246.456C61.8417 246.287 61.8548 244.907 61.8548 228.641V211.009L61.5865 210.907C61.3386 210.813 59.9374 210.801 59.5395 210.89ZM215.935 210.912L215.711 211.008L215.712 228.648C215.713 239.572 215.75 246.345 215.808 246.438C215.947 246.659 217.87 246.712 218.151 246.503C218.361 246.346 218.478 211.159 218.269 210.95C218.151 210.831 216.197 210.799 215.935 210.912ZM69.5763 217.892C69.5405 217.951 69.3564 217.999 69.1682 217.999C68.9794 217.999 68.8253 218.044 68.8253 218.099C68.8253 218.153 68.7697 218.199 68.701 218.2C68.6323 218.2 68.4668 218.34 68.3323 218.51C67.1546 220.004 68.0162 222.056 69.8117 222.033C72.1766 222.003 72.5841 218.372 70.267 217.978C70.1039 217.95 69.8966 217.895 69.8064 217.857C69.7161 217.818 69.6128 217.834 69.5763 217.892ZM123.152 217.892C123.117 217.951 122.953 217.999 122.79 217.999C122.48 217.999 122.356 218.072 121.917 218.512C121.43 219 121.405 219.065 121.405 219.887C121.405 221.552 122.794 222.54 124.194 221.871C125.941 221.036 125.691 218.237 123.845 217.973C123.681 217.949 123.473 217.897 123.382 217.858C123.292 217.818 123.189 217.834 123.152 217.892ZM83.7215 225.869C83.6893 225.921 83.4389 225.994 83.1653 226.032C82.8916 226.07 82.6675 226.141 82.6675 226.191C82.6675 226.24 82.5104 226.281 82.3192 226.281C82.1274 226.281 81.9703 226.326 81.9703 226.381C81.9703 226.436 81.9027 226.481 81.8197 226.481C81.6805 226.481 81.451 226.579 81.074 226.798C80.9922 226.846 80.8464 226.912 80.7508 226.945C80.6546 226.977 80.5763 227.043 80.5763 227.091C80.5763 227.14 80.5088 227.179 80.4269 227.179C80.3445 227.179 80.2775 227.221 80.2775 227.273C80.2775 227.324 80.1909 227.393 80.0845 227.427C79.9788 227.461 79.6669 227.7 79.392 227.958C79.1172 228.216 78.8119 228.499 78.7133 228.587C78.5149 228.765 78.3721 228.937 77.9359 229.524C77.7734 229.744 77.6169 229.946 77.5894 229.973C77.5619 230.001 77.4687 230.158 77.3827 230.323C77.296 230.487 77.1783 230.712 77.1198 230.822C76.8025 231.419 76.4936 232.143 76.4936 232.289C76.4936 232.381 76.4488 232.484 76.3938 232.518C76.3388 232.552 76.294 232.713 76.294 232.874C76.294 233.037 76.254 233.247 76.205 233.342C75.7258 234.275 75.7258 238.644 76.205 239.576C76.254 239.672 76.294 239.838 76.294 239.946C76.294 240.145 76.3747 240.379 76.6913 241.099C77.0666 241.953 77.3289 242.447 77.4071 242.447C77.4526 242.447 77.489 242.505 77.489 242.577C77.489 242.738 78.3697 243.841 78.92 244.369C79.8533 245.264 81.3142 246.098 82.5182 246.423C82.7374 246.483 83.17 246.6 83.4795 246.684C84.6405 247 88.2082 246.807 88.6073 246.407C88.6449 246.369 88.7638 246.338 88.872 246.338C89.5131 246.338 91.6486 244.987 92.5514 244.01L93.024 243.498V250.595C93.024 256.975 93.0401 257.699 93.1817 257.754C93.4446 257.855 95.1153 257.821 95.3214 257.71C95.5102 257.609 95.5138 257.328 95.5138 242.006V226.404L95.2682 226.243C94.9396 226.027 93.3771 226.014 93.1662 226.224C93.0569 226.334 93.024 226.682 93.024 227.732V229.099L92.396 228.463C91.6868 227.746 91.5434 227.626 90.9841 227.277C90.1249 226.742 89.6009 226.481 89.3828 226.481C89.3111 226.481 89.2239 226.436 89.1904 226.381C89.1564 226.326 89.0196 226.281 88.8857 226.281C88.7519 226.281 88.6425 226.246 88.6425 226.203C88.6425 225.932 83.8817 225.609 83.7215 225.869ZM174.114 225.973C173.774 226.064 173.465 226.171 173.425 226.21C173.387 226.249 173.228 226.281 173.073 226.281C172.918 226.281 172.79 226.326 172.79 226.381C172.79 226.436 172.679 226.481 172.542 226.481C172.405 226.481 172.293 226.526 172.293 226.58C172.293 226.636 172.208 226.68 172.106 226.68C172.003 226.68 171.863 226.748 171.795 226.83C171.727 226.912 171.609 226.98 171.534 226.98C171.458 226.98 171.396 227.025 171.396 227.08C171.396 227.134 171.326 227.179 171.24 227.179C170.865 227.179 168.409 229.518 168.409 229.875C168.409 229.929 168.366 229.973 168.314 229.973C168.262 229.973 168.141 230.142 168.046 230.348C167.95 230.554 167.847 230.744 167.817 230.772C167.703 230.875 167.513 231.273 167.513 231.407C167.513 231.483 167.445 231.601 167.363 231.67C167.281 231.738 167.214 231.901 167.214 232.031C167.214 232.162 167.169 232.268 167.114 232.268C167.06 232.268 167.015 232.376 167.015 232.506C167.015 232.637 166.947 232.904 166.865 233.101C166.783 233.298 166.716 233.593 166.716 233.756C166.716 233.92 166.671 234.081 166.616 234.115C166.488 234.194 166.482 237.98 166.61 238.399C166.661 238.567 166.778 238.997 166.87 239.354C167.064 240.11 167.094 240.192 167.474 241.05C167.632 241.407 167.795 241.713 167.836 241.732C167.877 241.75 167.911 241.81 167.911 241.864C167.911 242.041 168.77 243.281 169.298 243.866C170.085 244.738 172.076 246.139 172.528 246.139C172.611 246.139 172.707 246.184 172.741 246.239C172.775 246.293 172.904 246.338 173.029 246.338C173.154 246.338 173.286 246.369 173.324 246.407C173.719 246.804 177.145 246.997 178.199 246.683C178.483 246.599 178.872 246.483 179.064 246.428C179.256 246.371 179.503 246.291 179.612 246.25C179.899 246.141 181.395 245.402 181.454 245.341C181.481 245.312 181.683 245.171 181.902 245.028C182.121 244.885 182.61 244.482 182.988 244.133L183.676 243.499L183.604 245.193C183.512 247.376 183.296 249.41 183.138 249.577C183.088 249.629 183.046 249.786 183.045 249.926C183.043 250.066 182.975 250.268 182.895 250.374C182.815 250.48 182.749 250.649 182.749 250.748C182.749 250.847 182.704 250.929 182.649 250.929C182.595 250.929 182.55 250.995 182.55 251.075C182.55 251.432 181.627 252.751 180.941 253.373C180.452 253.818 180.125 254.03 179.463 254.332C179.216 254.445 178.937 254.579 178.842 254.629C178.746 254.679 178.533 254.72 178.369 254.72C178.204 254.72 178.069 254.759 178.069 254.805C178.069 254.901 176.688 255.057 175.927 255.049C175.072 255.038 173.886 254.898 173.886 254.807C173.886 254.759 173.729 254.72 173.537 254.72C173.345 254.72 173.189 254.676 173.189 254.621C173.189 254.566 173.088 254.518 172.965 254.514C172.842 254.51 172.606 254.422 172.442 254.319C172.278 254.215 171.994 254.055 171.813 253.962C171.631 253.869 171.356 253.676 171.202 253.533C171.047 253.391 170.792 253.161 170.636 253.022C170.257 252.688 169.803 252.151 169.803 252.036C169.803 251.985 169.769 251.928 169.728 251.91C169.561 251.836 169.106 250.732 168.954 250.031C168.864 249.619 168.737 249.125 168.671 248.933L168.55 248.584L167.473 248.555C166.764 248.537 166.349 248.566 166.257 248.642C166.098 248.775 166.069 249.389 166.218 249.482C166.273 249.516 166.318 249.785 166.318 250.08C166.318 250.376 166.362 250.646 166.417 250.679C166.472 250.713 166.517 250.874 166.517 251.036C166.517 251.198 166.56 251.408 166.612 251.504C166.663 251.599 166.849 251.991 167.024 252.376C167.726 253.913 168.999 255.332 170.3 256.028C170.547 256.16 170.771 256.292 170.799 256.323C171.004 256.55 172.829 257.193 173.637 257.322C177.752 257.983 180.991 257.081 183.325 254.626C183.871 254.052 184.94 252.539 184.94 252.339C184.94 252.277 184.985 252.226 185.039 252.226C185.094 252.226 185.139 252.114 185.139 251.976C185.139 251.839 185.184 251.727 185.239 251.727C185.293 251.727 185.338 251.642 185.338 251.539C185.338 251.435 185.405 251.222 185.487 251.065C185.568 250.908 185.636 250.687 185.636 250.574C185.637 250.462 185.677 250.327 185.727 250.275C185.825 250.172 185.89 249.732 186.047 248.134C186.107 247.529 186.169 242.738 186.195 236.777L186.239 226.467L186.013 226.278C185.688 226.006 183.909 225.989 183.783 226.257C183.738 226.352 183.677 227 183.648 227.696L183.595 228.961L182.873 228.268C182.187 227.608 181.158 226.879 180.508 226.59C180.344 226.517 180.132 226.418 180.037 226.37C179.941 226.321 179.773 226.281 179.663 226.281C179.553 226.281 179.463 226.244 179.463 226.199C179.463 225.849 175.235 225.67 174.114 225.973ZM197.99 225.877C197.91 225.927 197.63 225.999 197.367 226.034C197.105 226.071 196.865 226.141 196.834 226.191C196.803 226.24 196.673 226.281 196.544 226.281C196.416 226.281 196.139 226.367 195.928 226.473C195.718 226.578 195.478 226.692 195.396 226.726C194.984 226.897 193.803 227.695 193.803 227.803C193.803 227.844 193.746 227.879 193.678 227.88C193.434 227.883 191.711 229.887 191.711 230.166C191.711 230.225 191.677 230.273 191.634 230.273C191.592 230.273 191.468 230.475 191.36 230.721C191.252 230.967 191.13 231.17 191.089 231.17C191.048 231.17 191.014 231.28 191.014 231.415C191.014 231.549 190.969 231.686 190.915 231.72C190.86 231.753 190.815 231.882 190.815 232.005C190.815 232.128 190.773 232.271 190.721 232.323C190.611 232.435 190.439 233.077 190.295 233.915C190.173 234.621 190.146 237.511 190.255 238.156C190.374 238.868 190.639 239.894 190.731 239.997C190.777 240.049 190.815 240.173 190.815 240.273C190.815 240.373 190.856 240.532 190.906 240.627C190.955 240.722 191.122 241.07 191.275 241.399C191.983 242.921 194.226 245.44 194.874 245.44C194.933 245.44 194.996 245.476 195.014 245.519C195.077 245.666 196.362 246.24 197.039 246.423C197.258 246.483 197.69 246.6 198.001 246.684C199.131 246.992 201.96 246.848 202.914 246.435C203.024 246.387 203.321 246.281 203.575 246.199C204.574 245.875 205.871 245.034 206.773 244.125L207.246 243.648V244.844C207.246 246.41 207.27 246.438 208.575 246.438C209.991 246.438 209.838 247.679 209.838 236.26C209.838 224.863 209.983 226.082 208.622 226.082C207.269 226.082 207.246 226.108 207.246 227.625V228.846L206.674 228.31C206.359 228.015 205.9 227.641 205.653 227.479C205.407 227.318 205.16 227.149 205.105 227.105C205.05 227.061 204.737 226.897 204.408 226.742C204.08 226.586 203.733 226.419 203.638 226.37C203.542 226.321 203.377 226.281 203.27 226.281C203.163 226.281 203.051 226.24 203.02 226.191C202.989 226.141 202.74 226.07 202.466 226.032C202.193 225.994 201.943 225.922 201.913 225.873C201.84 225.754 198.177 225.758 197.99 225.877ZM229.852 225.936C229.66 226.01 229.38 226.073 229.23 226.076C229.079 226.079 228.955 226.127 228.955 226.182C228.955 226.236 228.843 226.281 228.705 226.281C228.567 226.281 228.377 226.321 228.282 226.37C228.187 226.419 227.84 226.586 227.512 226.741C227.183 226.896 226.899 227.058 226.881 227.101C226.863 227.144 226.804 227.179 226.75 227.179C226.663 227.179 226.302 227.427 225.733 227.878C225.103 228.377 223.848 229.909 223.567 230.522C223.517 230.632 223.39 230.857 223.285 231.021C223.18 231.186 223.091 231.414 223.087 231.528C223.083 231.643 223.05 231.767 223.012 231.805C222.437 232.381 222.058 236.062 222.368 238.056C222.432 238.468 222.512 238.984 222.546 239.204C222.58 239.423 222.67 239.691 222.744 239.8C222.82 239.908 222.881 240.077 222.881 240.175C222.881 240.274 222.922 240.432 222.971 240.527C223.021 240.622 223.204 241.015 223.379 241.399C223.985 242.735 225.02 244.02 226.267 244.983C226.85 245.433 228.599 246.338 228.886 246.338C228.98 246.338 229.136 246.381 229.231 246.434C229.911 246.811 233.015 246.968 234.131 246.681C236.172 246.156 237.83 245.26 238.89 244.107L239.312 243.649V244.844C239.312 246.408 239.337 246.438 240.635 246.438C241.309 246.438 241.618 246.396 241.779 246.283L242.001 246.128V236.266V226.404L241.756 226.243C241.461 226.049 240.019 226.017 239.679 226.197C239.337 226.377 239.315 226.463 239.314 227.661L239.312 228.791L239.019 228.559C238.858 228.431 238.721 228.282 238.717 228.227C238.699 228.044 236.634 226.68 236.374 226.68C236.292 226.68 236.225 226.636 236.225 226.58C236.225 226.526 236.116 226.481 235.982 226.481C235.848 226.481 235.711 226.436 235.677 226.381C235.644 226.326 235.514 226.281 235.389 226.281C235.265 226.281 235.129 226.248 235.088 226.206C234.737 225.854 230.617 225.642 229.852 225.936ZM68.6914 226.264C68.4136 226.572 68.4411 246.186 68.7195 246.335C68.8253 246.392 69.311 246.438 69.7992 246.438C71.2188 246.438 71.0659 247.668 71.0659 236.241V226.463L70.8311 226.273C70.4935 225.999 68.937 225.993 68.6914 226.264ZM101.313 226.204C100.974 226.368 100.979 226.235 101.025 233.516C101.075 241.474 101.092 241.665 101.868 243.345C102.334 244.352 104.285 246.139 104.92 246.139C104.998 246.139 105.09 246.184 105.123 246.239C105.157 246.293 105.287 246.338 105.411 246.338C105.536 246.338 105.669 246.369 105.707 246.407C106.243 246.945 109.872 246.969 111.098 246.442C111.208 246.396 111.499 246.281 111.746 246.189C113.007 245.718 114.343 244.546 114.94 243.387C115.286 242.716 115.391 242.414 115.62 241.423C115.849 240.428 115.765 226.457 115.529 226.254C115.215 225.984 113.656 226.007 113.358 226.285L113.14 226.489V233.414C113.14 237.923 113.105 240.361 113.04 240.401C112.986 240.435 112.941 240.662 112.941 240.906C112.941 241.15 112.896 241.349 112.841 241.349C112.786 241.349 112.742 241.462 112.742 241.601C112.742 241.739 112.63 242.03 112.493 242.247C112.356 242.465 112.244 242.681 112.244 242.727C112.244 242.875 111.27 243.744 111.106 243.744C111.02 243.744 110.949 243.789 110.949 243.844C110.949 243.899 110.862 243.943 110.756 243.943C110.65 243.943 110.535 243.988 110.501 244.043C110.467 244.098 110.272 244.143 110.067 244.143C109.862 244.143 109.646 244.191 109.589 244.249C109.52 244.318 109.093 244.339 108.398 244.309C106.89 244.245 106.597 244.19 105.826 243.83C105.499 243.677 104.775 243.013 104.775 242.865C104.775 242.8 104.739 242.746 104.694 242.746C104.566 242.746 104.096 241.66 103.939 241C103.651 239.793 103.58 238.068 103.58 232.25V226.404L103.334 226.243C103.046 226.054 101.678 226.028 101.313 226.204ZM122.277 226.221C121.99 226.439 122.009 246.181 122.295 246.335C122.666 246.533 124.135 246.463 124.427 246.233L124.688 246.028L124.691 236.287L124.693 226.546L124.476 226.313C124.216 226.037 122.608 225.969 122.277 226.221ZM245.636 226.246C245.379 226.502 245.902 227.57 246.58 228.177C246.611 228.205 247.058 228.766 247.574 229.424C248.09 230.083 248.806 230.997 249.165 231.456C249.524 231.914 249.953 232.456 250.117 232.659C250.281 232.862 250.55 233.201 250.714 233.411C250.879 233.621 251.06 233.843 251.117 233.904C251.173 233.965 251.352 234.194 251.514 234.414C251.676 234.633 251.831 234.836 251.859 234.863C251.887 234.89 252.053 235.1 252.23 235.327L252.551 235.742L252.332 236.026C252.211 236.182 252.067 236.358 252.011 236.417C251.955 236.476 251.798 236.689 251.66 236.89C251.523 237.092 251.378 237.257 251.337 237.257C251.296 237.257 251.262 237.322 251.262 237.399C251.262 237.477 251.228 237.556 251.187 237.574C251.106 237.61 250.169 238.794 249.423 239.803C249.261 240.022 249.082 240.25 249.025 240.309C248.969 240.367 248.81 240.58 248.673 240.782C248.536 240.983 248.39 241.149 248.35 241.149C248.308 241.149 248.275 241.197 248.275 241.255C248.275 241.313 248.14 241.504 247.976 241.679C247.812 241.854 247.678 242.026 247.677 242.062C247.677 242.097 247.521 242.299 247.331 242.511C247.14 242.723 246.984 242.923 246.982 242.956C246.981 242.988 246.902 243.108 246.806 243.221C246.71 243.335 246.452 243.663 246.233 243.95C246.014 244.237 245.72 244.611 245.58 244.781C244.464 246.135 244.572 246.439 246.167 246.437C247.494 246.435 247.489 246.438 248.283 245.379C248.669 244.864 249.038 244.387 249.103 244.318C249.168 244.249 249.355 244.013 249.518 243.794C249.681 243.575 249.87 243.327 249.936 243.245C250.091 243.054 252.248 240.258 252.736 239.616C252.938 239.35 253.149 239.081 253.204 239.018C253.259 238.955 253.496 238.646 253.73 238.33C254.244 237.638 254.233 237.639 254.651 238.231C254.835 238.491 255.013 238.727 255.045 238.755C255.089 238.792 256.908 241.109 257.512 241.898C257.555 241.953 257.692 242.132 257.818 242.297C257.944 242.462 258.154 242.731 258.287 242.896C258.42 243.06 259.032 243.846 259.646 244.642C260.262 245.438 260.831 246.156 260.911 246.239C261.138 246.473 263.32 246.515 263.546 246.289C263.742 246.093 263.758 245.804 263.583 245.622C263.513 245.55 263.368 245.371 263.26 245.226C262.526 244.243 261.769 243.29 261.7 243.261C261.655 243.244 261.619 243.169 261.619 243.096C261.619 243.022 261.583 242.947 261.539 242.929C261.496 242.911 261.173 242.514 260.822 242.048C260.471 241.581 260.148 241.185 260.105 241.166C260.061 241.148 260.025 241.073 260.025 241C260.025 240.926 259.985 240.852 259.936 240.834C259.887 240.815 259.562 240.419 259.214 239.952C258.866 239.485 258.298 238.745 257.952 238.306C257.176 237.322 257.156 237.296 256.792 236.807C256.629 236.589 256.417 236.323 256.32 236.218C255.975 235.841 256.074 235.421 256.639 234.863C256.739 234.764 257.822 233.405 258.198 232.907C258.409 232.628 258.738 232.205 258.93 231.97C259.122 231.733 259.391 231.401 259.529 231.231C259.667 231.061 260.001 230.63 260.272 230.273C260.543 229.916 260.792 229.602 260.825 229.574C261.002 229.427 262.781 227.082 262.923 226.807L263.089 226.486L263.148 226.786C263.182 226.952 263.451 227.591 263.746 228.206C264.043 228.822 264.402 229.569 264.545 229.867C264.688 230.166 264.805 230.469 264.805 230.541C264.805 230.613 264.85 230.672 264.905 230.672C264.96 230.672 265.005 230.717 265.005 230.772C265.005 230.827 265.234 231.355 265.514 231.944C266.488 233.993 267.064 235.215 267.244 235.612C267.56 236.306 268.388 238.063 268.984 239.303C270.103 241.629 270.565 242.603 270.832 243.195C271.277 244.182 272.075 245.871 272.235 246.164C272.37 246.411 272.368 246.47 272.216 246.763C271.911 247.347 271.876 247.432 271.876 247.584C271.876 247.667 271.836 247.736 271.787 247.736C271.738 247.736 271.669 247.852 271.633 247.996C271.597 248.139 271.476 248.465 271.363 248.719C271.251 248.974 271.123 249.272 271.079 249.382C271.035 249.492 270.905 249.797 270.788 250.06C270.672 250.323 270.506 250.727 270.421 250.958C270.335 251.189 270.152 251.624 270.014 251.927C269.775 252.449 269.686 252.658 269.459 253.224C269.312 253.59 269.071 254.147 268.973 254.345C268.927 254.44 268.889 254.586 268.889 254.67C268.889 254.752 268.844 254.82 268.789 254.82C268.734 254.82 268.689 254.889 268.689 254.971C268.689 255.055 268.647 255.201 268.595 255.296C268.509 255.451 268.372 255.771 268.07 256.517C268.014 256.654 267.93 256.844 267.881 256.939C267.53 257.631 267.781 257.815 269.071 257.812C270.303 257.81 270.269 257.84 270.885 256.268C270.928 256.157 271.072 255.821 271.204 255.519C271.338 255.217 271.504 254.813 271.574 254.621C271.645 254.429 271.782 254.092 271.879 253.873C271.976 253.653 272.127 253.305 272.215 253.099C272.523 252.373 272.701 251.972 272.885 251.584C272.987 251.368 273.071 251.14 273.071 251.078C273.071 251.017 273.155 250.789 273.257 250.573C273.359 250.357 273.511 250.023 273.594 249.831C273.936 249.039 274.102 248.663 274.279 248.291C274.381 248.075 274.465 247.863 274.465 247.82C274.465 247.776 274.577 247.496 274.714 247.196C274.851 246.896 274.963 246.625 274.963 246.593C274.963 246.562 275.057 246.323 275.172 246.063C275.287 245.803 275.418 245.5 275.463 245.391C275.508 245.281 275.66 244.935 275.802 244.624C275.943 244.311 276.059 244.031 276.059 244.002C276.059 243.973 276.198 243.645 276.367 243.273C276.538 242.9 276.81 242.26 276.973 241.848C277.135 241.437 277.31 241.057 277.361 241.005C277.411 240.953 277.453 240.851 277.453 240.779C277.453 240.707 277.548 240.436 277.663 240.176C278.18 239.016 278.273 238.802 278.449 238.356C278.551 238.095 278.728 237.674 278.841 237.42C278.953 237.166 279.136 236.757 279.245 236.51C279.354 236.264 279.444 236.033 279.444 235.997C279.444 235.925 279.886 234.928 280.046 234.64C280.098 234.545 280.141 234.423 280.141 234.368C280.141 234.314 280.259 234.01 280.402 233.693C280.546 233.376 280.729 232.959 280.81 232.768C280.891 232.575 281.047 232.216 281.156 231.969C281.265 231.722 281.391 231.43 281.435 231.321C281.479 231.211 281.612 230.902 281.731 230.634C281.85 230.367 282.035 229.921 282.145 229.645C282.253 229.368 282.432 228.936 282.542 228.684C282.765 228.172 282.878 227.906 283.041 227.504C283.102 227.353 283.192 227.151 283.24 227.056C283.366 226.808 283.349 226.342 283.208 226.202C282.906 225.898 280.841 226.12 280.839 226.456C280.839 226.525 280.794 226.58 280.739 226.58C280.684 226.58 280.639 226.652 280.639 226.74C280.639 226.828 280.577 227.018 280.502 227.164C280.426 227.31 280.319 227.541 280.263 227.679C280.138 227.985 279.932 228.468 279.643 229.125C279.523 229.4 279.379 229.736 279.325 229.873C279.269 230.011 279.168 230.258 279.099 230.422C279.031 230.587 278.928 230.834 278.87 230.972C278.814 231.109 278.668 231.445 278.548 231.72C278.428 231.994 278.263 232.376 278.181 232.568C278.1 232.76 277.992 232.995 277.942 233.09C277.892 233.186 277.851 233.354 277.851 233.465C277.851 233.575 277.817 233.666 277.776 233.666C277.735 233.666 277.619 233.88 277.518 234.14C277.265 234.796 277.205 234.942 276.955 235.512C276.666 236.17 276.46 236.652 276.335 236.959C276.279 237.096 276.172 237.327 276.096 237.473C276.02 237.619 275.959 237.81 275.959 237.897C275.959 237.984 275.914 238.056 275.859 238.056C275.805 238.056 275.76 238.147 275.76 238.257C275.76 238.368 275.717 238.536 275.664 238.632C275.58 238.784 275.205 239.624 274.963 240.201C274.721 240.779 274.346 241.62 274.262 241.772C274.209 241.867 274.166 242.035 274.166 242.146C274.166 242.257 274.121 242.347 274.067 242.347C274.012 242.347 273.967 242.405 273.967 242.475C273.967 242.547 273.887 242.761 273.79 242.952L273.613 243.3L273.442 242.941C273.347 242.743 273.27 242.529 273.27 242.464C273.27 242.4 273.225 242.347 273.17 242.347C273.116 242.347 273.071 242.283 273.071 242.205C273.071 242.127 272.92 241.757 272.736 241.382C272.552 241.007 272.266 240.409 272.1 240.052C271.935 239.695 271.565 238.909 271.279 238.306C270.589 236.85 269.739 235.043 268.813 233.067C268.62 232.655 268.312 232.011 268.128 231.635C267.944 231.258 267.793 230.888 267.793 230.812C267.793 230.734 267.748 230.672 267.694 230.672C267.639 230.672 267.594 230.629 267.594 230.576C267.594 230.473 267.091 229.366 266.537 228.244C266.352 227.87 266.2 227.499 266.2 227.421C266.2 227.343 266.162 227.279 266.116 227.279C266.07 227.279 265.971 227.093 265.896 226.866C265.654 226.132 263.795 225.703 263.199 226.243C263.036 226.391 263.009 226.391 262.861 226.243C262.732 226.113 262.49 226.083 261.637 226.089C260.36 226.098 260.253 226.15 259.517 227.125C259.229 227.506 258.937 227.888 258.869 227.973C258.754 228.114 258.193 228.811 257.902 229.175C257.835 229.257 257.648 229.505 257.485 229.724C257.321 229.944 257.064 230.258 256.914 230.422C256.764 230.587 256.64 230.752 256.64 230.79C256.64 230.827 256.582 230.916 256.513 230.989C256.443 231.062 256.097 231.48 255.743 231.919C255.389 232.358 255.017 232.807 254.917 232.917C254.816 233.027 254.644 233.263 254.534 233.441C254.275 233.86 254.267 233.857 253.799 233.253C253.582 232.97 253.2 232.487 252.952 232.18C252.704 231.872 252.413 231.501 252.305 231.355C251.991 230.931 249.508 227.778 249.065 227.24C248.924 227.07 248.709 226.784 248.585 226.606C248.462 226.427 248.296 226.281 248.218 226.281C248.14 226.281 248.075 226.236 248.075 226.182C248.075 225.996 245.826 226.055 245.636 226.246ZM87.2982 228.423C87.5174 228.459 87.7863 228.526 87.8957 228.571C88.774 228.931 89.0548 229.07 89.5364 229.385C91.0499 230.375 92.114 231.876 92.6769 233.815C92.7725 234.145 92.8896 234.517 92.9374 234.643C92.9852 234.769 93.024 235.564 93.024 236.41C93.024 237.255 92.9852 238.05 92.9374 238.176C92.8896 238.302 92.7701 238.675 92.6709 239.004C92.5723 239.333 92.454 239.646 92.4092 239.698C92.3638 239.75 92.3273 239.896 92.3273 240.022C92.3273 240.148 92.2927 240.252 92.2514 240.252C92.2096 240.252 92.1307 240.337 92.077 240.441C92.0226 240.546 91.8947 240.794 91.792 240.992C91.6898 241.19 91.3881 241.584 91.1222 241.869C90.8557 242.153 90.6262 242.41 90.6113 242.441C90.4942 242.684 88.8349 243.744 88.5714 243.744C88.5009 243.744 88.4436 243.789 88.4436 243.844C88.4436 243.899 88.3402 243.943 88.2141 243.943C88.0881 243.943 87.9429 243.984 87.8909 244.033C87.6549 244.257 85.149 244.44 84.6626 244.27C84.469 244.201 84.1422 244.146 83.936 244.145C83.7299 244.144 83.4831 244.103 83.3881 244.055C83.2931 244.006 83.1031 243.921 82.9663 243.866C82.3742 243.627 81.5723 243.206 81.5723 243.136C81.5723 243.093 81.4797 243.03 81.3662 242.993C81.1176 242.914 79.7798 241.561 79.7798 241.389C79.7798 241.321 79.7458 241.251 79.7051 241.233C79.5534 241.165 79.0825 240.349 79.0825 240.154C79.0825 240.043 79.0377 239.952 78.9828 239.952C78.9284 239.952 78.8836 239.849 78.8836 239.722C78.8836 239.597 78.831 239.441 78.7677 239.377C78.3285 238.938 78.3375 234.172 78.7784 233.731C78.8364 233.673 78.8836 233.521 78.8836 233.395C78.8836 233.141 78.8836 233.14 79.4321 232.069C79.8109 231.329 80.1897 230.786 80.6791 230.282C81.0364 229.915 81.6566 229.375 81.7211 229.375C81.751 229.375 81.9422 229.271 82.1465 229.144C82.3509 229.017 82.6747 228.856 82.8665 228.785C83.0583 228.714 83.3051 228.62 83.4144 228.577C84.0711 228.315 86.1551 228.232 87.2982 228.423ZM140.824 228.423C141.298 228.492 141.34 228.506 142.246 228.916C142.562 229.058 142.846 229.175 142.876 229.175C143.311 229.175 145.021 230.876 145.536 231.819C145.655 232.039 145.787 232.234 145.828 232.252C145.869 232.27 145.903 232.343 145.903 232.414C145.903 232.485 146.015 232.797 146.152 233.107C146.289 233.417 146.401 233.824 146.401 234.012C146.401 234.199 146.446 234.38 146.5 234.414C146.56 234.451 146.6 235.095 146.6 236.01C146.6 236.926 146.56 237.571 146.5 237.607C146.446 237.641 146.401 237.888 146.401 238.156C146.401 238.424 146.356 238.671 146.301 238.705C146.246 238.739 146.202 238.842 146.201 238.935C146.201 239.028 146.133 239.233 146.052 239.39C145.97 239.547 145.903 239.76 145.903 239.864C145.903 239.967 145.858 240.052 145.804 240.052C145.749 240.052 145.704 240.12 145.704 240.204C145.704 240.287 145.592 240.533 145.455 240.75C145.318 240.968 145.206 241.168 145.206 241.196C145.206 241.392 143.356 243.245 143.16 243.245C143.081 243.245 143.015 243.285 143.015 243.334C143.015 243.383 142.903 243.451 142.766 243.485C142.629 243.52 142.517 243.593 142.517 243.646C142.517 243.7 142.43 243.744 142.324 243.744C142.217 243.744 142.103 243.789 142.069 243.844C142.035 243.899 141.907 243.943 141.784 243.943C141.662 243.943 141.518 243.984 141.466 244.033C141.139 244.343 137.14 244.344 137.14 244.034C137.14 243.984 137.005 243.943 136.841 243.943C136.677 243.943 136.542 243.899 136.542 243.844C136.542 243.789 136.47 243.744 136.381 243.744C135.972 243.744 134.381 242.473 133.713 241.611C133.252 241.016 132.459 239.509 132.459 239.228C132.459 239.154 132.423 239.051 132.377 238.999C131.851 238.391 131.872 234.823 132.409 233.316C133.257 230.942 135.853 228.485 137.525 228.475C137.669 228.474 137.854 228.429 137.936 228.374C138.09 228.271 139.992 228.304 140.824 228.423ZM177.869 228.424C178.116 228.459 178.407 228.526 178.517 228.571C178.626 228.617 178.962 228.751 179.264 228.87C179.874 229.109 181.008 229.81 181.288 230.121C181.388 230.232 181.668 230.533 181.91 230.79C182.152 231.046 182.35 231.281 182.35 231.312C182.35 231.342 182.507 231.612 182.699 231.913C182.89 232.213 183.048 232.525 183.048 232.607C183.048 232.689 183.092 232.783 183.147 232.817C183.202 232.852 183.247 232.981 183.247 233.106C183.247 233.231 183.279 233.365 183.318 233.405C183.806 233.893 183.823 237.796 183.342 238.678C183.29 238.774 183.247 238.962 183.247 239.097C183.247 239.231 183.202 239.369 183.147 239.403C183.092 239.437 183.048 239.566 183.048 239.689C183.048 239.812 183.006 239.955 182.956 240.007C182.905 240.059 182.737 240.349 182.582 240.65C182.001 241.779 180.39 243.445 179.88 243.445C179.828 243.445 179.73 243.512 179.662 243.594C179.593 243.676 179.454 243.744 179.351 243.744C179.248 243.744 179.164 243.789 179.164 243.844C179.164 243.899 179.029 243.943 178.865 243.943C178.701 243.943 178.566 243.984 178.566 244.034C178.566 244.168 177.666 244.261 176.375 244.261C175.084 244.261 174.185 244.168 174.185 244.034C174.185 243.984 174.106 243.945 174.01 243.945C173.819 243.947 172.76 243.439 172.707 243.32C172.689 243.279 172.615 243.245 172.542 243.245C172.281 243.245 170.56 241.398 170.255 240.789C170.093 240.466 169.932 240.179 169.898 240.152C169.863 240.124 169.753 239.821 169.651 239.478C169.549 239.135 169.43 238.854 169.386 238.854C169.341 238.854 169.305 238.684 169.305 238.475C169.305 238.267 169.255 238.046 169.194 237.985C169.039 237.83 169.037 234.593 169.192 234.438C169.254 234.375 169.305 234.203 169.305 234.056C169.305 233.909 169.372 233.66 169.454 233.502C169.536 233.345 169.603 233.141 169.603 233.048C169.604 232.955 169.649 232.852 169.704 232.817C169.758 232.783 169.803 232.696 169.803 232.624C169.803 232.299 171.037 230.566 171.595 230.108C171.678 230.041 171.947 229.82 172.193 229.617C172.44 229.414 172.932 229.114 173.289 228.948C173.644 228.784 174.013 228.61 174.108 228.563C174.204 228.516 174.405 228.474 174.556 228.469C174.708 228.466 174.922 228.423 175.031 228.374C175.24 228.281 177.1 228.314 177.869 228.424ZM201.67 228.447C203.267 228.714 205.361 230.146 206.14 231.504C206.62 232.34 206.805 232.727 206.936 233.166C207.01 233.414 207.106 233.728 207.15 233.865C207.387 234.605 207.435 236.009 207.268 237.308C207.099 238.622 207.035 238.949 206.937 239.011C206.888 239.041 206.848 239.172 206.848 239.302C206.848 239.541 206.561 240.174 206.425 240.235C206.384 240.253 206.35 240.333 206.35 240.412C206.35 240.704 205.202 242.279 204.739 242.624C204.644 242.693 204.505 242.813 204.429 242.889C204.185 243.133 203.178 243.744 203.019 243.744C202.934 243.744 202.865 243.789 202.865 243.844C202.865 243.899 202.739 243.943 202.586 243.943C202.432 243.943 202.264 243.984 202.212 244.033C202.16 244.082 201.939 244.146 201.719 244.174C201.5 244.202 201.175 244.263 200.996 244.309C200.515 244.433 197.885 244.2 197.885 244.034C197.885 243.984 197.802 243.943 197.701 243.943C197.524 243.943 196.197 243.298 196.093 243.161C196.066 243.125 195.819 242.917 195.545 242.699C195.271 242.481 194.996 242.234 194.934 242.15C194.871 242.066 194.684 241.841 194.517 241.651C194.35 241.46 194.114 241.101 193.993 240.852C193.871 240.604 193.689 240.282 193.588 240.136C193.487 239.991 193.404 239.786 193.404 239.681C193.404 239.577 193.338 239.404 193.258 239.298C193.178 239.191 193.111 239.006 193.109 238.885C193.107 238.765 193.06 238.639 193.006 238.605C192.951 238.571 192.906 238.302 192.906 238.006C192.906 237.711 192.861 237.441 192.807 237.408C192.749 237.372 192.707 236.843 192.707 236.16C192.707 235.478 192.749 234.948 192.807 234.913C192.861 234.879 192.906 234.651 192.906 234.407C192.906 234.162 192.943 233.884 192.989 233.789C193.035 233.694 193.146 233.466 193.238 233.283C193.329 233.101 193.404 232.889 193.404 232.813C193.404 231.909 195.662 229.505 197.089 228.889C197.391 228.76 197.714 228.614 197.809 228.565C197.904 228.516 198.106 228.476 198.258 228.475C198.409 228.474 198.6 228.429 198.682 228.374C198.854 228.259 200.834 228.308 201.67 228.447ZM233.785 228.451C234.391 228.569 234.642 228.657 235.528 229.063C236.887 229.687 238.914 231.965 238.914 232.871C238.914 232.972 238.959 233.083 239.014 233.117C239.068 233.151 239.113 233.279 239.113 233.402C239.113 233.525 239.153 233.668 239.204 233.72C239.6 234.136 239.423 238.85 239.002 239.111C238.953 239.141 238.914 239.252 238.914 239.357C238.914 239.607 238.293 240.88 237.947 241.338C237.798 241.536 237.629 241.761 237.572 241.838C236.971 242.654 235.171 243.943 234.634 243.943C234.53 243.943 234.416 243.988 234.383 244.043C234.349 244.098 234.125 244.143 233.885 244.143C233.645 244.143 233.421 244.188 233.387 244.243C233.352 244.3 232.84 244.343 232.192 244.343C231.544 244.343 231.032 244.3 230.997 244.243C230.963 244.188 230.739 244.143 230.499 244.143C230.259 244.143 230.035 244.098 230.001 244.043C229.967 243.988 229.83 243.943 229.696 243.943C229.563 243.943 229.454 243.899 229.454 243.844C229.454 243.789 229.366 243.744 229.26 243.744C229.154 243.744 229.04 243.7 229.007 243.647C228.974 243.594 228.804 243.481 228.628 243.396C227.687 242.945 226.175 241.297 225.9 240.426C225.87 240.33 225.806 240.252 225.757 240.252C225.709 240.252 225.669 240.183 225.669 240.1C225.669 240.018 225.63 239.872 225.582 239.776C225.357 239.329 225.171 238.832 225.171 238.672C225.171 238.575 225.131 238.453 225.08 238.4C224.785 238.092 224.786 234.329 225.081 234.02C225.131 233.968 225.171 233.846 225.171 233.749C225.171 233.59 225.242 233.398 225.607 232.568C225.953 231.782 227.119 230.215 227.561 229.942C227.698 229.858 227.91 229.696 228.032 229.581C228.48 229.159 229.967 228.478 230.449 228.475C230.586 228.474 230.765 228.429 230.848 228.374C231.024 228.255 233.057 228.309 233.785 228.451Z" fill="#A1A3A5"/>
</svg>
