<svg width="260" height="560" viewBox="0 0 430 932" fill="none"
    xmlns="http://www.w3.org/2000/svg">
    <rect width="430" height="932" rx="30" fill="white" />
    <g clip-path="url(#clip0_1441_21981)">
        <rect x="36" y="57" width="174" height="29" rx="4" fill="#F5F5F5" />
    </g>
    <g clip-path="url(#clip1_1441_21981)">
        <rect x="16" y="591" width="189" height="62" rx="4" fill="#F5F5F5" />
    </g>
    <g clip-path="url(#clip2_1441_21981)">
        <rect x="217" y="591" width="189" height="62" rx="4" fill="#F5F5F5" />
    </g>
    <g clip-path="url(#clip3_1441_21981)">
        <rect x="217" y="664" width="189" height="62" rx="4" fill="#F5F5F5" />
    </g>
    <g clip-path="url(#clip4_1441_21981)">
        <rect x="217" y="737" width="189" height="62" rx="4" fill="#F5F5F5" />
    </g>
    <g clip-path="url(#clip5_1441_21981)">
        <rect x="17" y="737" width="189" height="62" rx="4" fill="#F5F5F5" />
    </g>
    <g clip-path="url(#clip6_1441_21981)">
        <rect x="17" y="664" width="189" height="62" rx="4" fill="#F5F5F5" />
    </g>
    <g clip-path="url(#clip7_1441_21981)">
        <rect x="36" y="91" width="276" height="20" rx="4" fill="#F5F5F5" />
    </g>
    <g clip-path="url(#clip8_1441_21981)">
        <rect x="36" y="158" width="276" height="20" rx="4" fill="#F5F5F5" />
    </g>
    <g clip-path="url(#clip9_1441_21981)">
        <rect x="357" y="49" width="45" height="45" rx="4" fill="#F5F5F5" />
    </g>
    <g clip-path="url(#clip10_1441_21981)">
        <rect x="16" y="223" width="394" height="342" rx="20" fill="#F5F5F5" />
    </g>
    <defs>
        <clipPath id="clip0_1441_21981">
            <rect x="36" y="57" width="174" height="29" rx="4" fill="white" />
        </clipPath>
        <clipPath id="clip1_1441_21981">
            <rect x="16" y="591" width="189" height="62" rx="4" fill="white" />
        </clipPath>
        <clipPath id="clip2_1441_21981">
            <rect x="217" y="591" width="189" height="62" rx="4" fill="white" />
        </clipPath>
        <clipPath id="clip3_1441_21981">
            <rect x="217" y="664" width="189" height="62" rx="4" fill="white" />
        </clipPath>
        <clipPath id="clip4_1441_21981">
            <rect x="217" y="737" width="189" height="62" rx="4" fill="white" />
        </clipPath>
        <clipPath id="clip5_1441_21981">
            <rect x="17" y="737" width="189" height="62" rx="4" fill="white" />
        </clipPath>
        <clipPath id="clip6_1441_21981">
            <rect x="17" y="664" width="189" height="62" rx="4" fill="white" />
        </clipPath>
        <clipPath id="clip7_1441_21981">
            <rect x="36" y="91" width="276" height="20" rx="4" fill="white" />
        </clipPath>
        <clipPath id="clip8_1441_21981">
            <rect x="36" y="158" width="276" height="20" rx="4" fill="white" />
        </clipPath>
        <clipPath id="clip9_1441_21981">
            <rect x="357" y="49" width="45" height="45" rx="4" fill="white" />
        </clipPath>
        <clipPath id="clip10_1441_21981">
            <rect x="16" y="223" width="394" height="342" rx="20" fill="white" />
        </clipPath>
    </defs>
</svg>